  0
SECTION
  2
HEADER
  9
$ACADVER
  1
AC1009
  9
$INSBASE
 10
0.0
 20
0.0
 30
0.0
  9
$EXTMIN
 10
-39.7000390181486
 20
19
 30
0.0
  9
$EXTMAX
 10
-7.00003901814866
 20
78
 30
0.0
  9
$LIMMIN
 10
0.0
 20
0.0
  9
$LIMMAX
 10
12.0000
 20
 9.0000
9
$ORTHOMODE
70
0
9
$REGENMODE
70
1
9
$FILLMODE
70
1
9
$QTEXTMODE
70
0
9
$MIRRTEXT
70
1
9
$DRAGMODE
70
2
9
$LTSCALE
40
1.0
9
$OSMODE
70
0
9
$ATTMODE
70
1
9
$TEXTSIZE
40
0.2
9
$TRACEWID
40
0.05
9
$TEXTSTYLE
7
STANDARD
9
$CLAYER
8
0
9
$CELTYPE
6
BYLAYER
9
$CECOLOR
62
256
9
$DIMSCALE
40
1.0
9
$DIMASZ
40
0.18
9
$DIMEXO
40
0.0625
9
$DIMDLI
40
0.38
9
$DIMRND
40
0.0
9
$DIMDLE
40
0.0
9
$DIMEXE
40
0.18
9
$DIMTP
40
0.0
9
$DIMTM
40
0.0
9
$DIMTXT
40
0.18
9
$DIMCEN
40
0.09
9
$DIMTSZ
40
0.0
9
$DIMTOL
70
0
9
$DIMLIM
70
0
9
$DIMTIH
70
1
9
$DIMTOH
70
1
9
$DIMSE1
70
0
9
$DIMSE2
70
0
9
$DIMTAD
70
0
9
$DIMZIN
70
0
9
$DIMBLK
1

9
$DIMASO
70
1
9
$DIMSHO
70
1
9
$DIMPOST
1

9
$DIMAPOST
1

9
$DIMALT
70
0
9
$DIMALTD
70
2
9
$DIMALTF
40
25.4
9
$DIMLFAC
40
1.0
9
$DIMTOFL
70
0
9
$DIMTVP
40
0.0
9
$DIMTIX
70
0
9
$DIMSOXD
70
0
9
$DIMSAH
70
0
9
$DIMBLK1
1

9
$DIMBLK2
1

9
$DIMSTYLE
2
*UNNAMED
9
$DIMCLRD
70
0
9
$DIMCLRE
70
0
9
$DIMCLRT
70
0
9
$DIMTFAC
40
1.0
9
$DIMGAP
40
0.09
9
$LUNITS
70
2
9
$LUPREC
70
4
9
$SKETCHINC
40
0.1
9
$FILLETRAD
40
0.0
9
$AUNITS
70
0
9
$AUPREC
70
0
9
$MENU
1
acad
9
$ELEVATION
40
0.0
9
$PELEVATION
40
0.0
9
$THICKNESS
40
0.0
9
$LIMCHECK
70
0
9
$BLIPMODE
70
1
9
$CHAMFERA
40
0.0
9
$CHAMFERB
40
0.0
9
$SKPOLY
70
0
9
$TDCREATE
40
2449214.701881018
9
$TDUPDATE
40
2449214.701881018
9
$TDINDWG
40
0.0000000000
9
$TDUSRTIMER
40
0.0000000000
9
$USRTIMER
70
1
9
$ANGBASE
50
0.0
9
$ANGDIR
70
0
9
$PDMODE
70
0
9
$PDSIZE
40
0.0
9
$PLINEWID
40
0.0
9
$COORDS
70
1
9
$SPLFRAME
70
0
9
$SPLINETYPE
70
6
9
$SPLINESEGS
70
8
9
$ATTDIA
70
0
9
$ATTREQ
70
1
9
$HANDLING
70
0
9
$HANDSEED
5
0
9
$SURFTAB1
70
6
9
$SURFTAB2
70
6
9
$SURFTYPE
70
6
9
$SURFU
70
6
9
$SURFV
70
6
9
$UCSNAME
2

9
$UCSORG
10
0.0
20
0.0
30
0.0
9
$UCSXDIR
10
1.0
20
0.0
30
0.0
9
$UCSYDIR
10
0.0
20
1.0
30
0.0
9
$PUCSNAME
2

9
$PUCSORG
10
0.0
20
0.0
30
0.0
9
$PUCSXDIR
10
1.0
20
0.0
30
0.0
9
$PUCSYDIR
10
0.0
20
1.0
30
0.0
9
$USERI1
70
0
9
$USERI2
70
0
9
$USERI3
70
0
9
$USERI4
70
0
9
$USERI5
70
0
9
$USERR1
40
0.0
9
$USERR2
40
0.0
9
$USERR3
40
0.0
9
$USERR4
40
0.0
9
$USERR5
40
0.0
9
$WORLDVIEW
70
1
9
$SHADEDGE
70
3
9
$SHADEDIF
70
70
9
$TILEMODE
70
1
9
$MAXACTVP
70
16
9
$PINSBASE
10
0.0
20
0.0
30
0.0
9
$PLIMCHECK
70
0
  9
$PEXTMIN
 10
1.0000000000000000E+020
 20
1.0000000000000000E+020
 30
1.0000000000000000E+020
  9
$PEXTMAX
 10
-1.0000000000000000E+020
 20
-1.0000000000000000E+020
 30
-1.0000000000000000E+020
  9
$PLIMMIN
 10
-39.7000390181486
 20
19
  9
$PLIMMAX
 10
12.0000
 20
 9.0000
  9
$UNITMODE
 70
0
  9
$VISRETAIN
 70
1
  9
$PLINEGEN
 70
0
  9
$PSLTSCALE
 70
1
  0
ENDSEC
  0
SECTION
  2
TABLES
  0
TABLE
  2
VPORT
 70
3
  0
VPORT
  2
*ACTIVE
 70
0
 10
0.0
 20
0.0
 11
1.0
 21
1.0
 12
-23.3500390181486
 22
48.5
 13
0.0
 23
0.0
 14
1.0
 24
1.0
 15
1.0
 25
1.0
 16
0.0
 26
0.0
 36
1.0
 17
0.0
 27
0.0
 37
0.0
 40
59
 41
0.554237288135592
 42
50.0
 43
0.0
 44
0.0
 50
0.0
 51
0.0
 71
0
 72
100
 73
1
 74
3
 75
0
 76
0
 77
0
 78
0
  0
ENDTAB
0
TABLE
2
LTYPE
70
1
0
LTYPE
2
CONTINUOUS
70
64
3
Solid line
72
65
73
0
40
0.0
0
ENDTAB
  0
TABLE
  2
LAYER
 70
2
  0
LAYER
  2
Slice
 70
0
 62
7
  6
CONTINUOUS
  0
ENDTAB
0
TABLE
2
STYLE
70
1
0
STYLE
2
STANDARD
70
64
40
0.0
41
1.0
50
0.0
71
0
42
0.2
3
txt
4

0
ENDTAB
0
TABLE
2
VIEW
70
0
0
ENDTAB
0
TABLE
2
UCS
70
0
0
ENDTAB
0
TABLE
2
APPID
70
1
0
APPID
2
ACAD
70
64
0
ENDTAB
0
TABLE
2
DIMSTYLE
70
0
0
ENDTAB
0
ENDSEC
0
SECTION
2
BLOCKS
0
ENDSEC
  0
SECTION
  2
ENTITIES
  0
LINE
  5
0
  8
Slice
 10
-26.7000390181489
 20
64.9911662705816
 30
0
 11
-28.200039018149
 21
64.9911662705816
 31
0
  0
LINE
  5
0
  8
Slice
 10
-11.1000390181489
 20
28.0911662705817
 30
0
 11
-12.6000390181489
 21
28.0911662705817
 31
0
  0
LINE
  5
0
  8
Slice
 10
-26.7000390181489
 20
40.3911662705819
 30
0
 11
-28.200039018149
 21
40.3911662705819
 31
0
  0
LINE
  5
0
  8
Slice
 10
-15.800039018149
 20
32.7911662705816
 30
0
 11
-15.800039018149
 21
35.7911662705817
 31
0
  0
LINE
  5
0
  8
Slice
 10
-18.9000390181489
 20
48.5911662705816
 30
0
 11
-20.400039018149
 21
48.5911662705816
 31
0
  0
LINE
  5
0
  8
Slice
 10
-10.6000390181487
 20
49.1911662705818
 30
0
 11
-10.6000390181487
 21
52.1911662705817
 31
0
  0
LINE
  5
0
  8
Slice
 10
-36.0000390181488
 20
65.0911662705818
 30
0
 11
-34.5000390181488
 21
65.0911662705818
 31
0
  0
LINE
  5
0
  8
Slice
 10
-10.6000390181487
 20
53.2911662705816
 30
0
 11
-10.6000390181487
 21
56.2911662705817
 31
0
  0
LINE
  5
0
  8
Slice
 10
-18.300039018149
 20
52.1911662705817
 30
0
 11
-18.300039018149
 21
49.1911662705818
 31
0
  0
LINE
  5
0
  8
Slice
 10
-17.8000390181492
 20
52.7911662705816
 30
0
 11
-16.3000390181492
 21
52.7911662705816
 31
0
  0
LINE
  5
0
  8
Slice
 10
-8.000039018149
 20
32.7911662705816
 30
0
 11
-8.000039018149
 21
35.7911662705817
 31
0
  0
LINE
  5
0
  8
Slice
 10
-13.7000390181486
 20
56.7911662705816
 30
0
 11
-15.2000390181486
 21
56.7911662705816
 31
0
  0
LINE
  5
0
  8
Slice
 10
-21.5000390181491
 20
36.2911662705817
 30
0
 11
-23.0000390181491
 21
36.2911662705817
 31
0
  0
LINE
  5
0
  8
Slice
 10
-13.2000390181489
 20
24.5911662705816
 30
0
 11
-13.2000390181489
 21
27.5911662705817
 31
0
  0
LINE
  5
0
  8
Slice
 10
-29.3000390181488
 20
48.5911662705816
 30
0
 11
-30.8000390181488
 21
48.5911662705816
 31
0
  0
LINE
  5
0
  8
Slice
 10
-23.0000390181491
 20
73.2911662705818
 30
0
 11
-21.5000390181491
 21
73.2911662705818
 31
0
  0
LINE
  5
0
  8
Slice
 10
-29.3000390181488
 20
52.6911662705818
 30
0
 11
-30.8000390181488
 21
52.6911662705818
 31
0
  0
LINE
  5
0
  8
Slice
 10
-37.1000390181489
 20
64.9911662705816
 30
0
 11
-38.600039018149
 21
64.9911662705816
 31
0
  0
LINE
  5
0
  8
Slice
 10
-37.1000390181489
 20
69.0911662705818
 30
0
 11
-38.600039018149
 21
69.0911662705818
 31
0
  0
LINE
  5
0
  8
Slice
 10
-20.400039018149
 20
48.6911662705818
 30
0
 11
-18.9000390181489
 21
48.6911662705818
 31
0
  0
LINE
  5
0
  8
Slice
 10
-18.300039018149
 20
48.0911662705817
 30
0
 11
-18.300039018149
 21
45.0911662705816
 31
0
  0
LINE
  5
0
  8
Slice
 10
-36.6000390181488
 20
49.1911662705818
 30
0
 11
-36.6000390181488
 21
52.1911662705817
 31
0
  0
LINE
  5
0
  8
Slice
 10
-26.7000390181489
 20
60.8911662705818
 30
0
 11
-28.200039018149
 21
60.8911662705818
 31
0
  0
LINE
  5
0
  8
Slice
 10
-13.1000390181491
 20
48.0911662705817
 30
0
 11
-13.1000390181491
 21
45.0911662705816
 31
0
  0
LINE
  5
0
  8
Slice
 10
-23.5000390181488
 20
39.8911662705817
 30
0
 11
-23.5000390181488
 21
36.8911662705818
 31
0
  0
LINE
  5
0
  8
Slice
 10
-10.5000390181489
 20
39.8911662705817
 30
0
 11
-10.5000390181489
 21
36.8911662705818
 31
0
  0
LINE
  5
0
  8
Slice
 10
-37.1000390181489
 20
77.2911662705818
 30
0
 11
-38.600039018149
 21
77.2911662705818
 31
0
  0
LINE
  5
0
  8
Slice
 10
-12.6000390181489
 20
52.7911662705816
 30
0
 11
-11.1000390181489
 21
52.7911662705816
 31
0
  0
LINE
  5
0
  8
Slice
 10
-33.9000390181487
 20
76.7911662705819
 30
0
 11
-33.9000390181487
 21
73.7911662705818
 31
0
  0
LINE
  5
0
  8
Slice
 10
-8.50003901814916
 20
73.1911662705816
 30
0
 11
-10.0000390181488
 21
73.1911662705816
 31
0
  0
LINE
  5
0
  8
Slice
 10
-16.3000390181492
 20
48.5911662705816
 30
0
 11
-17.8000390181492
 21
48.5911662705816
 31
0
  0
LINE
  5
0
  8
Slice
 10
-18.9000390181489
 20
64.9911662705816
 30
0
 11
-20.400039018149
 21
64.9911662705816
 31
0
  0
LINE
  5
0
  8
Slice
 10
-25.6000390181488
 20
44.5911662705816
 30
0
 11
-24.1000390181488
 21
44.5911662705816
 31
0
  0
LINE
  5
0
  8
Slice
 10
-13.7000390181486
 20
48.5911662705816
 30
0
 11
-15.2000390181486
 21
48.5911662705816
 31
0
  0
LINE
  5
0
  8
Slice
 10
-21.5000390181491
 20
44.4911662705816
 30
0
 11
-23.0000390181491
 21
44.4911662705816
 31
0
  0
LINE
  5
0
  8
Slice
 10
-16.3000390181492
 20
44.4911662705816
 30
0
 11
-17.8000390181492
 21
44.4911662705816
 31
0
  0
LINE
  5
0
  8
Slice
 10
-38.600039018149
 20
44.5911662705816
 30
0
 11
-37.1000390181489
 21
44.5911662705816
 31
0
  0
LINE
  5
0
  8
Slice
 10
-10.5000390181489
 20
76.7911662705819
 30
0
 11
-10.5000390181489
 21
73.7911662705818
 31
0
  0
LINE
  5
0
  8
Slice
 10
-31.9000390181489
 20
73.1911662705816
 30
0
 11
-33.400039018149
 21
73.1911662705816
 31
0
  0
LINE
  5
0
  8
Slice
 10
-36.6000390181488
 20
61.4911662705816
 30
0
 11
-36.6000390181488
 21
64.4911662705817
 31
0
  0
LINE
  5
0
  8
Slice
 10
-39.1000390181487
 20
64.4911662705817
 30
0
 11
-39.1000390181487
 21
61.4911662705816
 31
0
  0
LINE
  5
0
  8
Slice
 10
-17.8000390181492
 20
56.8911662705818
 30
0
 11
-16.3000390181492
 21
56.8911662705818
 31
0
  0
LINE
  5
0
  8
Slice
 10
-26.7000390181489
 20
44.4911662705816
 30
0
 11
-28.200039018149
 21
44.4911662705816
 31
0
  0
LINE
  5
0
  8
Slice
 10
-26.100039018149
 20
76.7911662705819
 30
0
 11
-26.100039018149
 21
73.7911662705818
 31
0
  0
LINE
  5
0
  8
Slice
 10
-31.4000390181488
 20
57.3911662705818
 30
0
 11
-31.4000390181488
 21
60.3911662705819
 31
0
  0
LINE
  5
0
  8
Slice
 10
-34.5000390181488
 20
64.9911662705816
 30
0
 11
-36.0000390181488
 21
64.9911662705816
 31
0
  0
LINE
  5
0
  8
Slice
 10
-30.8000390181488
 20
52.7911662705816
 30
0
 11
-29.3000390181488
 21
52.7911662705816
 31
0
  0
LINE
  5
0
  8
Slice
 10
-25.6000390181488
 20
36.3911662705819
 30
0
 11
-24.1000390181488
 21
36.3911662705819
 31
0
  0
LINE
  5
0
  8
Slice
 10
-11.1000390181489
 20
69.0911662705818
 30
0
 11
-12.6000390181489
 21
69.0911662705818
 31
0
  0
LINE
  5
0
  8
Slice
 10
-25.6000390181488
 20
65.0911662705818
 30
0
 11
-24.1000390181488
 21
65.0911662705818
 31
0
  0
LINE
  5
0
  8
Slice
 10
-28.7000390181487
 20
48.0911662705817
 30
0
 11
-28.7000390181487
 21
45.0911662705816
 31
0
  0
LINE
  5
0
  8
Slice
 10
-34.5000390181488
 20
48.5911662705816
 30
0
 11
-36.0000390181488
 21
48.5911662705816
 31
0
  0
LINE
  5
0
  8
Slice
 10
-31.4000390181488
 20
65.5911662705818
 30
0
 11
-31.4000390181488
 21
68.5911662705819
 31
0
  0
LINE
  5
0
  8
Slice
 10
-31.300039018149
 20
68.5911662705819
 30
0
 11
-31.300039018149
 21
65.5911662705818
 31
0
  0
LINE
  5
0
  8
Slice
 10
-15.7000390181488
 20
68.5911662705819
 30
0
 11
-15.7000390181488
 21
65.5911662705818
 31
0
  0
LINE
  5
0
  8
Slice
 10
-20.9000390181491
 20
64.4911662705817
 30
0
 11
-20.9000390181491
 21
61.4911662705816
 31
0
  0
LINE
  5
0
  8
Slice
 10
-26.2000390181488
 20
73.7911662705818
 30
0
 11
-26.2000390181488
 21
76.7911662705819
 31
0
  0
LINE
  5
0
  8
Slice
 10
-13.1000390181491
 20
27.5911662705817
 30
0
 11
-13.1000390181491
 21
24.5911662705816
 31
0
  0
LINE
  5
0
  8
Slice
 10
-18.300039018149
 20
68.5911662705819
 30
0
 11
-18.300039018149
 21
65.5911662705818
 31
0
  0
LINE
  5
0
  8
Slice
 10
-31.4000390181488
 20
49.1911662705818
 30
0
 11
-31.4000390181488
 21
52.1911662705817
 31
0
  0
LINE
  5
0
  8
Slice
 10
-18.4000390181492
 20
49.1911662705818
 30
0
 11
-18.4000390181492
 21
52.1911662705817
 31
0
  0
LINE
  5
0
  8
Slice
 10
-10.0000390181488
 20
65.0911662705818
 30
0
 11
-8.50003901814916
 21
65.0911662705818
 31
0
  0
LINE
  5
0
  8
Slice
 10
-13.2000390181489
 20
49.1911662705818
 30
0
 11
-13.2000390181489
 21
52.1911662705817
 31
0
  0
LINE
  5
0
  8
Slice
 10
-10.5000390181489
 20
64.4911662705817
 30
0
 11
-10.5000390181489
 21
61.4911662705816
 31
0
  0
LINE
  5
0
  8
Slice
 10
-29.3000390181488
 20
69.0911662705818
 30
0
 11
-30.8000390181488
 21
69.0911662705818
 31
0
  0
LINE
  5
0
  8
Slice
 10
-39.1000390181487
 20
56.2911662705817
 30
0
 11
-39.1000390181487
 21
53.2911662705816
 31
0
  0
LINE
  5
0
  8
Slice
 10
-8.50003901814916
 20
44.4911662705816
 30
0
 11
-10.0000390181488
 21
44.4911662705816
 31
0
  0
LINE
  5
0
  8
Slice
 10
-28.7000390181487
 20
60.3911662705819
 30
0
 11
-28.7000390181487
 21
57.3911662705818
 31
0
  0
LINE
  5
0
  8
Slice
 10
-20.400039018149
 20
65.0911662705818
 30
0
 11
-18.9000390181489
 21
65.0911662705818
 31
0
  0
LINE
  5
0
  8
Slice
 10
-34.5000390181488
 20
52.6911662705818
 30
0
 11
-36.0000390181488
 21
52.6911662705818
 31
0
  0
LINE
  5
0
  8
Slice
 10
-34.0000390181491
 20
73.7911662705818
 30
0
 11
-34.0000390181491
 21
76.7911662705819
 31
0
  0
LINE
  5
0
  8
Slice
 10
-10.0000390181488
 20
48.6911662705818
 30
0
 11
-8.50003901814916
 21
48.6911662705818
 31
0
  0
LINE
  5
0
  8
Slice
 10
-28.200039018149
 20
48.6911662705818
 30
0
 11
-26.7000390181489
 21
48.6911662705818
 31
0
  0
LINE
  5
0
  8
Slice
 10
-36.6000390181488
 20
57.3911662705818
 30
0
 11
-36.6000390181488
 21
60.3911662705819
 31
0
  0
LINE
  5
0
  8
Slice
 10
-18.300039018149
 20
60.3911662705819
 30
0
 11
-18.300039018149
 21
57.3911662705818
 31
0
  0
LINE
  5
0
  8
Slice
 10
-31.9000390181489
 20
69.0911662705818
 30
0
 11
-33.400039018149
 21
69.0911662705818
 31
0
  0
LINE
  5
0
  8
Slice
 10
-16.3000390181492
 20
32.1911662705817
 30
0
 11
-17.8000390181492
 21
32.1911662705817
 31
0
  0
LINE
  5
0
  8
Slice
 10
-30.8000390181488
 20
69.1911662705816
 30
0
 11
-29.3000390181488
 21
69.1911662705816
 31
0
  0
LINE
  5
0
  8
Slice
 10
-21.5000390181491
 20
69.0911662705818
 30
0
 11
-23.0000390181491
 21
69.0911662705818
 31
0
  0
LINE
  5
0
  8
Slice
 10
-23.6000390181491
 20
49.1911662705818
 30
0
 11
-23.6000390181491
 21
52.1911662705817
 31
0
  0
LINE
  5
0
  8
Slice
 10
-23.0000390181491
 20
65.0911662705818
 30
0
 11
-21.5000390181491
 21
65.0911662705818
 31
0
  0
LINE
  5
0
  8
Slice
 10
-26.100039018149
 20
48.0911662705817
 30
0
 11
-26.100039018149
 21
45.0911662705816
 31
0
  0
LINE
  5
0
  8
Slice
 10
-10.0000390181488
 20
73.2911662705818
 30
0
 11
-8.50003901814916
 21
73.2911662705818
 31
0
  0
LINE
  5
0
  8
Slice
 10
-28.8000390181491
 20
73.7911662705818
 30
0
 11
-28.8000390181491
 21
76.7911662705819
 31
0
  0
LINE
  5
0
  8
Slice
 10
-31.9000390181489
 20
77.2911662705818
 30
0
 11
-33.400039018149
 21
77.2911662705818
 31
0
  0
LINE
  5
0
  8
Slice
 10
-23.6000390181491
 20
36.8911662705818
 30
0
 11
-23.6000390181491
 21
39.8911662705817
 31
0
  0
LINE
  5
0
  8
Slice
 10
-28.7000390181487
 20
76.7911662705819
 30
0
 11
-28.7000390181487
 21
73.7911662705818
 31
0
  0
LINE
  5
0
  8
Slice
 10
-31.300039018149
 20
64.4911662705817
 30
0
 11
-31.300039018149
 21
61.4911662705816
 31
0
  0
LINE
  5
0
  8
Slice
 10
-18.4000390181492
 20
69.6911662705816
 30
0
 11
-18.4000390181492
 21
72.6911662705817
 31
0
  0
LINE
  5
0
  8
Slice
 10
-28.8000390181491
 20
40.9911662705818
 30
0
 11
-28.8000390181491
 21
43.9911662705817
 31
0
  0
LINE
  5
0
  8
Slice
 10
-34.5000390181488
 20
77.2911662705818
 30
0
 11
-36.0000390181488
 21
77.2911662705818
 31
0
  0
LINE
  5
0
  8
Slice
 10
-37.1000390181489
 20
73.1911662705816
 30
0
 11
-38.600039018149
 21
73.1911662705816
 31
0
  0
LINE
  5
0
  8
Slice
 10
-36.6000390181488
 20
53.2911662705816
 30
0
 11
-36.6000390181488
 21
56.2911662705817
 31
0
  0
LINE
  5
0
  8
Slice
 10
-20.400039018149
 20
60.9911662705816
 30
0
 11
-18.9000390181489
 21
60.9911662705816
 31
0
  0
LINE
  5
0
  8
Slice
 10
-38.600039018149
 20
65.0911662705818
 30
0
 11
-37.1000390181489
 21
65.0911662705818
 31
0
  0
LINE
  5
0
  8
Slice
 10
-26.7000390181489
 20
73.1911662705816
 30
0
 11
-28.200039018149
 21
73.1911662705816
 31
0
  0
LINE
  5
0
  8
Slice
 10
-26.7000390181489
 20
69.0911662705818
 30
0
 11
-28.200039018149
 21
69.0911662705818
 31
0
  0
LINE
  5
0
  8
Slice
 10
-15.7000390181488
 20
35.7911662705817
 30
0
 11
-15.7000390181488
 21
32.7911662705816
 31
0
  0
LINE
  5
0
  8
Slice
 10
-12.6000390181489
 20
60.9911662705816
 30
0
 11
-11.1000390181489
 21
60.9911662705816
 31
0
  0
LINE
  5
0
  8
Slice
 10
-21.0000390181489
 20
61.4911662705816
 30
0
 11
-21.0000390181489
 21
64.4911662705817
 31
0
  0
LINE
  5
0
  8
Slice
 10
-15.7000390181488
 20
64.4911662705817
 30
0
 11
-15.7000390181488
 21
61.4911662705816
 31
0
  0
LINE
  5
0
  8
Slice
 10
-34.5000390181488
 20
73.1911662705816
 30
0
 11
-36.0000390181488
 21
73.1911662705816
 31
0
  0
LINE
  5
0
  8
Slice
 10
-13.1000390181491
 20
76.7911662705819
 30
0
 11
-13.1000390181491
 21
73.7911662705818
 31
0
  0
LINE
  5
0
  8
Slice
 10
-34.0000390181491
 20
65.5911662705818
 30
0
 11
-34.0000390181491
 21
68.5911662705819
 31
0
  0
LINE
  5
0
  8
Slice
 10
-26.7000390181489
 20
77.2911662705818
 30
0
 11
-28.200039018149
 21
77.2911662705818
 31
0
  0
LINE
  5
0
  8
Slice
 10
-28.8000390181491
 20
49.1911662705818
 30
0
 11
-28.8000390181491
 21
52.1911662705817
 31
0
  0
LINE
  5
0
  8
Slice
 10
-15.800039018149
 20
24.5911662705816
 30
0
 11
-15.800039018149
 21
27.5911662705817
 31
0
  0
LINE
  5
0
  8
Slice
 10
-20.400039018149
 20
44.5911662705816
 30
0
 11
-18.9000390181489
 21
44.5911662705816
 31
0
  0
LINE
  5
0
  8
Slice
 10
-8.50003901814916
 20
69.0911662705818
 30
0
 11
-10.0000390181488
 21
69.0911662705818
 31
0
  0
LINE
  5
0
  8
Slice
 10
-34.0000390181491
 20
61.4911662705816
 30
0
 11
-34.0000390181491
 21
64.4911662705817
 31
0
  0
LINE
  5
0
  8
Slice
 10
-13.2000390181489
 20
65.5911662705818
 30
0
 11
-13.2000390181489
 21
68.5911662705819
 31
0
  0
LINE
  5
0
  8
Slice
 10
-17.8000390181492
 20
48.6911662705818
 30
0
 11
-16.3000390181492
 21
48.6911662705818
 31
0
  0
LINE
  5
0
  8
Slice
 10
-13.7000390181486
 20
28.0911662705817
 30
0
 11
-15.2000390181486
 21
28.0911662705817
 31
0
  0
LINE
  5
0
  8
Slice
 10
-34.0000390181491
 20
69.6911662705816
 30
0
 11
-34.0000390181491
 21
72.6911662705817
 31
0
  0
LINE
  5
0
  8
Slice
 10
-18.4000390181492
 20
61.4911662705816
 30
0
 11
-18.4000390181492
 21
64.4911662705817
 31
0
  0
LINE
  5
0
  8
Slice
 10
-13.2000390181489
 20
53.2911662705816
 30
0
 11
-13.2000390181489
 21
56.2911662705817
 31
0
  0
LINE
  5
0
  8
Slice
 10
-18.300039018149
 20
64.4911662705817
 30
0
 11
-18.300039018149
 21
61.4911662705816
 31
0
  0
LINE
  5
0
  8
Slice
 10
-23.5000390181488
 20
43.9911662705817
 30
0
 11
-23.5000390181488
 21
40.9911662705818
 31
0
  0
LINE
  5
0
  8
Slice
 10
-31.300039018149
 20
76.7911662705819
 30
0
 11
-31.300039018149
 21
73.7911662705818
 31
0
  0
LINE
  5
0
  8
Slice
 10
-16.3000390181492
 20
69.0911662705818
 30
0
 11
-17.8000390181492
 21
69.0911662705818
 31
0
  0
LINE
  5
0
  8
Slice
 10
-28.7000390181487
 20
39.8911662705817
 30
0
 11
-28.7000390181487
 21
36.8911662705818
 31
0
  0
LINE
  5
0
  8
Slice
 10
-28.7000390181487
 20
43.9911662705817
 30
0
 11
-28.7000390181487
 21
40.9911662705818
 31
0
  0
LINE
  5
0
  8
Slice
 10
-18.4000390181492
 20
57.3911662705818
 30
0
 11
-18.4000390181492
 21
60.3911662705819
 31
0
  0
LINE
  5
0
  8
Slice
 10
-15.800039018149
 20
73.7911662705818
 30
0
 11
-15.800039018149
 21
76.7911662705819
 31
0
  0
LINE
  5
0
  8
Slice
 10
-15.7000390181488
 20
39.8911662705817
 30
0
 11
-15.7000390181488
 21
36.8911662705818
 31
0
  0
LINE
  5
0
  8
Slice
 10
-15.800039018149
 20
61.4911662705816
 30
0
 11
-15.800039018149
 21
64.4911662705817
 31
0
  0
LINE
  5
0
  8
Slice
 10
-18.9000390181489
 20
73.1911662705816
 30
0
 11
-20.400039018149
 21
73.1911662705816
 31
0
  0
LINE
  5
0
  8
Slice
 10
-29.3000390181488
 20
77.2911662705818
 30
0
 11
-30.8000390181488
 21
77.2911662705818
 31
0
  0
LINE
  5
0
  8
Slice
 10
-10.6000390181487
 20
61.4911662705816
 30
0
 11
-10.6000390181487
 21
64.4911662705817
 31
0
  0
LINE
  5
0
  8
Slice
 10
-28.7000390181487
 20
72.6911662705817
 30
0
 11
-28.7000390181487
 21
69.6911662705816
 31
0
  0
LINE
  5
0
  8
Slice
 10
-20.400039018149
 20
69.1911662705816
 30
0
 11
-18.9000390181489
 21
69.1911662705816
 31
0
  0
LINE
  5
0
  8
Slice
 10
-13.1000390181491
 20
64.4911662705817
 30
0
 11
-13.1000390181491
 21
61.4911662705816
 31
0
  0
LINE
  5
0
  8
Slice
 10
-26.2000390181488
 20
69.6911662705816
 30
0
 11
-26.2000390181488
 21
72.6911662705817
 31
0
  0
LINE
  5
0
  8
Slice
 10
-20.400039018149
 20
73.2911662705818
 30
0
 11
-18.9000390181489
 21
73.2911662705818
 31
0
  0
LINE
  5
0
  8
Slice
 10
-10.5000390181489
 20
35.7911662705817
 30
0
 11
-10.5000390181489
 21
32.7911662705816
 31
0
  0
LINE
  5
0
  8
Slice
 10
-20.400039018149
 20
32.2911662705816
 30
0
 11
-18.9000390181489
 21
32.2911662705816
 31
0
  0
LINE
  5
0
  8
Slice
 10
-23.0000390181491
 20
60.9911662705816
 30
0
 11
-21.5000390181491
 21
60.9911662705816
 31
0
  0
LINE
  5
0
  8
Slice
 10
-39.1000390181487
 20
76.7911662705819
 30
0
 11
-39.1000390181487
 21
73.7911662705818
 31
0
  0
LINE
  5
0
  8
Slice
 10
-20.9000390181491
 20
35.7911662705817
 30
0
 11
-20.9000390181491
 21
32.7911662705816
 31
0
  0
LINE
  5
0
  8
Slice
 10
-21.5000390181491
 20
40.3911662705819
 30
0
 11
-23.0000390181491
 21
40.3911662705819
 31
0
  0
LINE
  5
0
  8
Slice
 10
-28.200039018149
 20
40.4911662705816
 30
0
 11
-26.7000390181489
 21
40.4911662705816
 31
0
  0
LINE
  5
0
  8
Slice
 10
-23.0000390181491
 20
40.4911662705816
 30
0
 11
-21.5000390181491
 21
40.4911662705816
 31
0
  0
LINE
  5
0
  8
Slice
 10
-23.0000390181491
 20
44.5911662705816
 30
0
 11
-21.5000390181491
 21
44.5911662705816
 31
0
  0
LINE
  5
0
  8
Slice
 10
-10.0000390181488
 20
60.9911662705816
 30
0
 11
-8.50003901814916
 21
60.9911662705816
 31
0
  0
LINE
  5
0
  8
Slice
 10
-25.6000390181488
 20
73.2911662705818
 30
0
 11
-24.1000390181488
 21
73.2911662705818
 31
0
  0
LINE
  5
0
  8
Slice
 10
-8.50003901814916
 20
23.9911662705817
 30
0
 11
-10.0000390181488
 21
23.9911662705817
 31
0
  0
LINE
  5
0
  8
Slice
 10
-10.0000390181488
 20
69.1911662705816
 30
0
 11
-8.50003901814916
 21
69.1911662705816
 31
0
  0
LINE
  5
0
  8
Slice
 10
-10.5000390181489
 20
31.6911662705817
 30
0
 11
-10.5000390181489
 21
28.6911662705818
 31
0
  0
LINE
  5
0
  8
Slice
 10
-16.3000390181492
 20
64.9911662705816
 30
0
 11
-17.8000390181492
 21
64.9911662705816
 31
0
  0
LINE
  5
0
  8
Slice
 10
-39.1000390181487
 20
48.0911662705817
 30
0
 11
-39.1000390181487
 21
45.0911662705816
 31
0
  0
LINE
  5
0
  8
Slice
 10
-11.1000390181489
 20
77.2911662705818
 30
0
 11
-12.6000390181489
 21
77.2911662705818
 31
0
  0
LINE
  5
0
  8
Slice
 10
-21.5000390181491
 20
64.9911662705816
 30
0
 11
-23.0000390181491
 21
64.9911662705816
 31
0
  0
LINE
  5
0
  8
Slice
 10
-33.400039018149
 20
40.4911662705816
 30
0
 11
-31.9000390181489
 21
40.4911662705816
 31
0
  0
LINE
  5
0
  8
Slice
 10
-33.9000390181487
 20
72.6911662705817
 30
0
 11
-33.9000390181487
 21
69.6911662705816
 31
0
  0
LINE
  5
0
  8
Slice
 10
-13.1000390181491
 20
23.4911662705817
 30
0
 11
-13.1000390181491
 21
20.4911662705816
 31
0
  0
LINE
  5
0
  8
Slice
 10
-13.2000390181489
 20
73.7911662705818
 30
0
 11
-13.2000390181489
 21
76.7911662705819
 31
0
  0
LINE
  5
0
  8
Slice
 10
-26.2000390181488
 20
49.1911662705818
 30
0
 11
-26.2000390181488
 21
52.1911662705817
 31
0
  0
LINE
  5
0
  8
Slice
 10
-17.8000390181492
 20
32.2911662705816
 30
0
 11
-16.3000390181492
 21
32.2911662705816
 31
0
  0
LINE
  5
0
  8
Slice
 10
-38.600039018149
 20
73.2911662705818
 30
0
 11
-37.1000390181489
 21
73.2911662705818
 31
0
  0
LINE
  5
0
  8
Slice
 10
-36.0000390181488
 20
69.1911662705816
 30
0
 11
-34.5000390181488
 21
69.1911662705816
 31
0
  0
LINE
  5
0
  8
Slice
 10
-36.0000390181488
 20
52.7911662705816
 30
0
 11
-34.5000390181488
 21
52.7911662705816
 31
0
  0
LINE
  5
0
  8
Slice
 10
-31.4000390181488
 20
61.4911662705816
 30
0
 11
-31.4000390181488
 21
64.4911662705817
 31
0
  0
LINE
  5
0
  8
Slice
 10
-33.400039018149
 20
56.8911662705818
 30
0
 11
-31.9000390181489
 21
56.8911662705818
 31
0
  0
LINE
  5
0
  8
Slice
 10
-24.1000390181488
 20
40.3911662705819
 30
0
 11
-25.6000390181488
 21
40.3911662705819
 31
0
  0
LINE
  5
0
  8
Slice
 10
-26.2000390181488
 20
40.9911662705818
 30
0
 11
-26.2000390181488
 21
43.9911662705817
 31
0
  0
LINE
  5
0
  8
Slice
 10
-33.9000390181487
 20
48.0911662705817
 30
0
 11
-33.9000390181487
 21
45.0911662705816
 31
0
  0
LINE
  5
0
  8
Slice
 10
-31.9000390181489
 20
52.6911662705818
 30
0
 11
-33.400039018149
 21
52.6911662705818
 31
0
  0
LINE
  5
0
  8
Slice
 10
-8.50003901814916
 20
77.2911662705818
 30
0
 11
-10.0000390181488
 21
77.2911662705818
 31
0
  0
LINE
  5
0
  8
Slice
 10
-36.500039018149
 20
64.4911662705817
 30
0
 11
-36.500039018149
 21
61.4911662705816
 31
0
  0
LINE
  5
0
  8
Slice
 10
-36.500039018149
 20
60.3911662705819
 30
0
 11
-36.500039018149
 21
57.3911662705818
 31
0
  0
LINE
  5
0
  8
Slice
 10
-18.4000390181492
 20
65.5911662705818
 30
0
 11
-18.4000390181492
 21
68.5911662705819
 31
0
  0
LINE
  5
0
  8
Slice
 10
-11.1000390181489
 20
56.7911662705816
 30
0
 11
-12.6000390181489
 21
56.7911662705816
 31
0
  0
LINE
  5
0
  8
Slice
 10
-24.1000390181488
 20
73.1911662705816
 30
0
 11
-25.6000390181488
 21
73.1911662705816
 31
0
  0
LINE
  5
0
  8
Slice
 10
-31.300039018149
 20
56.2911662705817
 30
0
 11
-31.300039018149
 21
53.2911662705816
 31
0
  0
LINE
  5
0
  8
Slice
 10
-26.100039018149
 20
64.4911662705817
 30
0
 11
-26.100039018149
 21
61.4911662705816
 31
0
  0
LINE
  5
0
  8
Slice
 10
-34.0000390181491
 20
53.2911662705816
 30
0
 11
-34.0000390181491
 21
56.2911662705817
 31
0
  0
LINE
  5
0
  8
Slice
 10
-21.0000390181489
 20
73.7911662705818
 30
0
 11
-21.0000390181489
 21
76.7911662705819
 31
0
  0
LINE
  5
0
  8
Slice
 10
-39.1000390181487
 20
72.6911662705817
 30
0
 11
-39.1000390181487
 21
69.6911662705816
 31
0
  0
LINE
  5
0
  8
Slice
 10
-13.7000390181486
 20
36.2911662705817
 30
0
 11
-15.2000390181486
 21
36.2911662705817
 31
0
  0
LINE
  5
0
  8
Slice
 10
-33.9000390181487
 20
60.3911662705819
 30
0
 11
-33.9000390181487
 21
57.3911662705818
 31
0
  0
LINE
  5
0
  8
Slice
 10
-15.800039018149
 20
36.8911662705818
 30
0
 11
-15.800039018149
 21
39.8911662705817
 31
0
  0
LINE
  5
0
  8
Slice
 10
-30.8000390181488
 20
65.0911662705818
 30
0
 11
-29.3000390181488
 21
65.0911662705818
 31
0
  0
LINE
  5
0
  8
Slice
 10
-12.6000390181489
 20
65.0911662705818
 30
0
 11
-11.1000390181489
 21
65.0911662705818
 31
0
  0
LINE
  5
0
  8
Slice
 10
-13.2000390181489
 20
40.9911662705818
 30
0
 11
-13.2000390181489
 21
43.9911662705817
 31
0
  0
LINE
  5
0
  8
Slice
 10
-10.6000390181487
 20
40.9911662705818
 30
0
 11
-10.6000390181487
 21
43.9911662705817
 31
0
  0
LINE
  5
0
  8
Slice
 10
-26.7000390181489
 20
48.5911662705816
 30
0
 11
-28.200039018149
 21
48.5911662705816
 31
0
  0
LINE
  5
0
  8
Slice
 10
-8.000039018149
 20
28.6911662705818
 30
0
 11
-8.000039018149
 21
31.6911662705817
 31
0
  0
LINE
  5
0
  8
Slice
 10
-8.50003901814916
 20
48.5911662705816
 30
0
 11
-10.0000390181488
 21
48.5911662705816
 31
0
  0
LINE
  5
0
  8
Slice
 10
-36.0000390181488
 20
60.9911662705816
 30
0
 11
-34.5000390181488
 21
60.9911662705816
 31
0
  0
LINE
  5
0
  8
Slice
 10
-15.2000390181486
 20
65.0911662705818
 30
0
 11
-13.7000390181486
 21
65.0911662705818
 31
0
  0
LINE
  5
0
  8
Slice
 10
-31.9000390181489
 20
48.5911662705816
 30
0
 11
-33.400039018149
 21
48.5911662705816
 31
0
  0
LINE
  5
0
  8
Slice
 10
-36.500039018149
 20
52.1911662705817
 30
0
 11
-36.500039018149
 21
49.1911662705818
 31
0
  0
LINE
  5
0
  8
Slice
 10
-13.1000390181491
 20
72.6911662705817
 30
0
 11
-13.1000390181491
 21
69.6911662705816
 31
0
  0
LINE
  5
0
  8
Slice
 10
-10.5000390181489
 20
43.9911662705817
 30
0
 11
-10.5000390181489
 21
40.9911662705818
 31
0
  0
LINE
  5
0
  8
Slice
 10
-13.7000390181486
 20
40.3911662705819
 30
0
 11
-15.2000390181486
 21
40.3911662705819
 31
0
  0
LINE
  5
0
  8
Slice
 10
-28.200039018149
 20
52.7911662705816
 30
0
 11
-26.7000390181489
 21
52.7911662705816
 31
0
  0
LINE
  5
0
  8
Slice
 10
-11.1000390181489
 20
64.9911662705816
 30
0
 11
-12.6000390181489
 21
64.9911662705816
 31
0
  0
LINE
  5
0
  8
Slice
 10
-10.5000390181489
 20
23.4911662705817
 30
0
 11
-10.5000390181489
 21
20.4911662705816
 31
0
  0
LINE
  5
0
  8
Slice
 10
-33.400039018149
 20
60.9911662705816
 30
0
 11
-31.9000390181489
 21
60.9911662705816
 31
0
  0
LINE
  5
0
  8
Slice
 10
-30.8000390181488
 20
73.2911662705818
 30
0
 11
-29.3000390181488
 21
73.2911662705818
 31
0
  0
LINE
  5
0
  8
Slice
 10
-23.6000390181491
 20
69.6911662705816
 30
0
 11
-23.6000390181491
 21
72.6911662705817
 31
0
  0
LINE
  5
0
  8
Slice
 10
-29.3000390181488
 20
73.1911662705816
 30
0
 11
-30.8000390181488
 21
73.1911662705816
 31
0
  0
LINE
  5
0
  8
Slice
 10
-28.200039018149
 20
65.0911662705818
 30
0
 11
-26.7000390181489
 21
65.0911662705818
 31
0
  0
LINE
  5
0
  8
Slice
 10
-24.1000390181488
 20
48.5911662705816
 30
0
 11
-25.6000390181488
 21
48.5911662705816
 31
0
  0
LINE
  5
0
  8
Slice
 10
-31.300039018149
 20
60.3911662705819
 30
0
 11
-31.300039018149
 21
57.3911662705818
 31
0
  0
LINE
  5
0
  8
Slice
 10
-8.000039018149
 20
65.5911662705818
 30
0
 11
-8.000039018149
 21
68.5911662705819
 31
0
  0
LINE
  5
0
  8
Slice
 10
-10.6000390181487
 20
32.7911662705816
 30
0
 11
-10.6000390181487
 21
35.7911662705817
 31
0
  0
LINE
  5
0
  8
Slice
 10
-17.8000390181492
 20
60.9911662705816
 30
0
 11
-16.3000390181492
 21
60.9911662705816
 31
0
  0
LINE
  5
0
  8
Slice
 10
-36.500039018149
 20
72.6911662705817
 30
0
 11
-36.500039018149
 21
69.6911662705816
 31
0
  0
LINE
  5
0
  8
Slice
 10
-26.7000390181489
 20
56.7911662705816
 30
0
 11
-28.200039018149
 21
56.7911662705816
 31
0
  0
LINE
  5
0
  8
Slice
 10
-20.400039018149
 20
56.8911662705818
 30
0
 11
-18.9000390181489
 21
56.8911662705818
 31
0
  0
LINE
  5
0
  8
Slice
 10
-15.2000390181486
 20
60.9911662705816
 30
0
 11
-13.7000390181486
 21
60.9911662705816
 31
0
  0
LINE
  5
0
  8
Slice
 10
-31.9000390181489
 20
56.7911662705816
 30
0
 11
-33.400039018149
 21
56.7911662705816
 31
0
  0
LINE
  5
0
  8
Slice
 10
-13.7000390181486
 20
64.9911662705816
 30
0
 11
-15.2000390181486
 21
64.9911662705816
 31
0
  0
LINE
  5
0
  8
Slice
 10
-12.6000390181489
 20
40.4911662705816
 30
0
 11
-11.1000390181489
 21
40.4911662705816
 31
0
  0
LINE
  5
0
  8
Slice
 10
-31.4000390181488
 20
73.7911662705818
 30
0
 11
-31.4000390181488
 21
76.7911662705819
 31
0
  0
LINE
  5
0
  8
Slice
 10
-38.600039018149
 20
52.7911662705816
 30
0
 11
-37.1000390181489
 21
52.7911662705816
 31
0
  0
LINE
  5
0
  8
Slice
 10
-20.9000390181491
 20
72.6911662705817
 30
0
 11
-20.9000390181491
 21
69.6911662705816
 31
0
  0
LINE
  5
0
  8
Slice
 10
-8.000039018149
 20
61.4911662705816
 30
0
 11
-8.000039018149
 21
64.4911662705817
 31
0
  0
LINE
  5
0
  8
Slice
 10
-15.7000390181488
 20
52.1911662705817
 30
0
 11
-15.7000390181488
 21
49.1911662705818
 31
0
  0
LINE
  5
0
  8
Slice
 10
-21.0000390181489
 20
69.6911662705816
 30
0
 11
-21.0000390181489
 21
72.6911662705817
 31
0
  0
LINE
  5
0
  8
Slice
 10
-26.2000390181488
 20
57.3911662705818
 30
0
 11
-26.2000390181488
 21
60.3911662705819
 31
0
  0
LINE
  5
0
  8
Slice
 10
-28.7000390181487
 20
56.2911662705817
 30
0
 11
-28.7000390181487
 21
53.2911662705816
 31
0
  0
LINE
  5
0
  8
Slice
 10
-37.1000390181489
 20
48.5911662705816
 30
0
 11
-38.600039018149
 21
48.5911662705816
 31
0
  0
LINE
  5
0
  8
Slice
 10
-36.500039018149
 20
48.0911662705817
 30
0
 11
-36.500039018149
 21
45.0911662705816
 31
0
  0
LINE
  5
0
  8
Slice
 10
-25.6000390181488
 20
56.8911662705818
 30
0
 11
-24.1000390181488
 21
56.8911662705818
 31
0
  0
LINE
  5
0
  8
Slice
 10
-34.0000390181491
 20
49.1911662705818
 30
0
 11
-34.0000390181491
 21
52.1911662705817
 31
0
  0
LINE
  5
0
  8
Slice
 10
-36.500039018149
 20
56.2911662705817
 30
0
 11
-36.500039018149
 21
53.2911662705816
 31
0
  0
LINE
  5
0
  8
Slice
 10
-33.9000390181487
 20
64.4911662705817
 30
0
 11
-33.9000390181487
 21
61.4911662705816
 31
0
  0
LINE
  5
0
  8
Slice
 10
-36.0000390181488
 20
48.6911662705818
 30
0
 11
-34.5000390181488
 21
48.6911662705818
 31
0
  0
LINE
  5
0
  8
Slice
 10
-16.3000390181492
 20
40.3911662705819
 30
0
 11
-17.8000390181492
 21
40.3911662705819
 31
0
  0
LINE
  5
0
  8
Slice
 10
-23.6000390181491
 20
57.3911662705818
 30
0
 11
-23.6000390181491
 21
60.3911662705819
 31
0
  0
LINE
  5
0
  8
Slice
 10
-39.1000390181487
 20
52.1911662705817
 30
0
 11
-39.1000390181487
 21
49.1911662705818
 31
0
  0
LINE
  5
0
  8
Slice
 10
-11.1000390181489
 20
23.9911662705817
 30
0
 11
-12.6000390181489
 21
23.9911662705817
 31
0
  0
LINE
  5
0
  8
Slice
 10
-16.3000390181492
 20
52.6911662705818
 30
0
 11
-17.8000390181492
 21
52.6911662705818
 31
0
  0
LINE
  5
0
  8
Slice
 10
-23.5000390181488
 20
64.4911662705817
 30
0
 11
-23.5000390181488
 21
61.4911662705816
 31
0
  0
LINE
  5
0
  8
Slice
 10
-28.7000390181487
 20
64.4911662705817
 30
0
 11
-28.7000390181487
 21
61.4911662705816
 31
0
  0
LINE
  5
0
  8
Slice
 10
-36.0000390181488
 20
73.2911662705818
 30
0
 11
-34.5000390181488
 21
73.2911662705818
 31
0
  0
LINE
  5
0
  8
Slice
 10
-13.1000390181491
 20
56.2911662705817
 30
0
 11
-13.1000390181491
 21
53.2911662705816
 31
0
  0
LINE
  5
0
  8
Slice
 10
-18.4000390181492
 20
32.7911662705816
 30
0
 11
-18.4000390181492
 21
35.7911662705817
 31
0
  0
LINE
  5
0
  8
Slice
 10
-26.100039018149
 20
52.1911662705817
 30
0
 11
-26.100039018149
 21
49.1911662705818
 31
0
  0
LINE
  5
0
  8
Slice
 10
-21.0000390181489
 20
49.1911662705818
 30
0
 11
-21.0000390181489
 21
52.1911662705817
 31
0
  0
LINE
  5
0
  8
Slice
 10
-16.3000390181492
 20
60.8911662705818
 30
0
 11
-17.8000390181492
 21
60.8911662705818
 31
0
  0
LINE
  5
0
  8
Slice
 10
-8.50003901814916
 20
40.3911662705819
 30
0
 11
-10.0000390181488
 21
40.3911662705819
 31
0
  0
LINE
  5
0
  8
Slice
 10
-21.5000390181491
 20
56.7911662705816
 30
0
 11
-23.0000390181491
 21
56.7911662705816
 31
0
  0
LINE
  5
0
  8
Slice
 10
-13.7000390181486
 20
44.4911662705816
 30
0
 11
-15.2000390181486
 21
44.4911662705816
 31
0
  0
LINE
  5
0
  8
Slice
 10
-26.100039018149
 20
56.2911662705817
 30
0
 11
-26.100039018149
 21
53.2911662705816
 31
0
  0
LINE
  5
0
  8
Slice
 10
-25.6000390181488
 20
48.6911662705818
 30
0
 11
-24.1000390181488
 21
48.6911662705818
 31
0
  0
LINE
  5
0
  8
Slice
 10
-13.1000390181491
 20
35.7911662705817
 30
0
 11
-13.1000390181491
 21
32.7911662705816
 31
0
  0
LINE
  5
0
  8
Slice
 10
-31.4000390181488
 20
69.6911662705816
 30
0
 11
-31.4000390181488
 21
72.6911662705817
 31
0
  0
LINE
  5
0
  8
Slice
 10
-17.8000390181492
 20
40.4911662705816
 30
0
 11
-16.3000390181492
 21
40.4911662705816
 31
0
  0
LINE
  5
0
  8
Slice
 10
-21.0000390181489
 20
65.5911662705818
 30
0
 11
-21.0000390181489
 21
68.5911662705819
 31
0
  0
LINE
  5
0
  8
Slice
 10
-15.7000390181488
 20
48.0911662705817
 30
0
 11
-15.7000390181488
 21
45.0911662705816
 31
0
  0
LINE
  5
0
  8
Slice
 10
-28.7000390181487
 20
52.1911662705817
 30
0
 11
-28.7000390181487
 21
49.1911662705818
 31
0
  0
LINE
  5
0
  8
Slice
 10
-15.2000390181486
 20
32.2911662705816
 30
0
 11
-13.7000390181486
 21
32.2911662705816
 31
0
  0
LINE
  5
0
  8
Slice
 10
-13.1000390181491
 20
39.8911662705817
 30
0
 11
-13.1000390181491
 21
36.8911662705818
 31
0
  0
LINE
  5
0
  8
Slice
 10
-23.0000390181491
 20
48.6911662705818
 30
0
 11
-21.5000390181491
 21
48.6911662705818
 31
0
  0
LINE
  5
0
  8
Slice
 10
-10.6000390181487
 20
36.8911662705818
 30
0
 11
-10.6000390181487
 21
39.8911662705817
 31
0
  0
LINE
  5
0
  8
Slice
 10
-23.5000390181488
 20
56.2911662705817
 30
0
 11
-23.5000390181488
 21
53.2911662705816
 31
0
  0
LINE
  5
0
  8
Slice
 10
-23.6000390181491
 20
61.4911662705816
 30
0
 11
-23.6000390181491
 21
64.4911662705817
 31
0
  0
LINE
  5
0
  8
Slice
 10
-10.0000390181488
 20
36.3911662705819
 30
0
 11
-8.50003901814916
 21
36.3911662705819
 31
0
  0
LINE
  5
0
  8
Slice
 10
-17.8000390181492
 20
36.3911662705819
 30
0
 11
-16.3000390181492
 21
36.3911662705819
 31
0
  0
LINE
  5
0
  8
Slice
 10
-18.9000390181489
 20
44.4911662705816
 30
0
 11
-20.400039018149
 21
44.4911662705816
 31
0
  0
LINE
  5
0
  8
Slice
 10
-31.9000390181489
 20
64.9911662705816
 30
0
 11
-33.400039018149
 21
64.9911662705816
 31
0
  0
LINE
  5
0
  8
Slice
 10
-18.9000390181489
 20
40.3911662705819
 30
0
 11
-20.400039018149
 21
40.3911662705819
 31
0
  0
LINE
  5
0
  8
Slice
 10
-15.2000390181486
 20
36.3911662705819
 30
0
 11
-13.7000390181486
 21
36.3911662705819
 31
0
  0
LINE
  5
0
  8
Slice
 10
-26.100039018149
 20
43.9911662705817
 30
0
 11
-26.100039018149
 21
40.9911662705818
 31
0
  0
LINE
  5
0
  8
Slice
 10
-26.2000390181488
 20
53.2911662705816
 30
0
 11
-26.2000390181488
 21
56.2911662705817
 31
0
  0
LINE
  5
0
  8
Slice
 10
-11.1000390181489
 20
48.5911662705816
 30
0
 11
-12.6000390181489
 21
48.5911662705816
 31
0
  0
LINE
  5
0
  8
Slice
 10
-37.1000390181489
 20
56.7911662705816
 30
0
 11
-38.600039018149
 21
56.7911662705816
 31
0
  0
LINE
  5
0
  8
Slice
 10
-28.8000390181491
 20
65.5911662705818
 30
0
 11
-28.8000390181491
 21
68.5911662705819
 31
0
  0
LINE
  5
0
  8
Slice
 10
-15.2000390181486
 20
48.6911662705818
 30
0
 11
-13.7000390181486
 21
48.6911662705818
 31
0
  0
LINE
  5
0
  8
Slice
 10
-31.300039018149
 20
52.1911662705817
 30
0
 11
-31.300039018149
 21
49.1911662705818
 31
0
  0
LINE
  5
0
  8
Slice
 10
-26.2000390181488
 20
45.0911662705816
 30
0
 11
-26.2000390181488
 21
48.0911662705817
 31
0
  0
LINE
  5
0
  8
Slice
 10
-30.8000390181488
 20
48.6911662705818
 30
0
 11
-29.3000390181488
 21
48.6911662705818
 31
0
  0
LINE
  5
0
  8
Slice
 10
-18.9000390181489
 20
36.2911662705817
 30
0
 11
-20.400039018149
 21
36.2911662705817
 31
0
  0
LINE
  5
0
  8
Slice
 10
-15.2000390181486
 20
28.1911662705817
 30
0
 11
-13.7000390181486
 21
28.1911662705817
 31
0
  0
LINE
  5
0
  8
Slice
 10
-34.0000390181491
 20
45.0911662705816
 30
0
 11
-34.0000390181491
 21
48.0911662705817
 31
0
  0
LINE
  5
0
  8
Slice
 10
-21.0000390181489
 20
53.2911662705816
 30
0
 11
-21.0000390181489
 21
56.2911662705817
 31
0
  0
LINE
  5
0
  8
Slice
 10
-29.3000390181488
 20
60.8911662705818
 30
0
 11
-30.8000390181488
 21
60.8911662705818
 31
0
  0
LINE
  5
0
  8
Slice
 10
-33.9000390181487
 20
68.5911662705819
 30
0
 11
-33.9000390181487
 21
65.5911662705818
 31
0
  0
LINE
  5
0
  8
Slice
 10
-24.1000390181488
 20
52.6911662705818
 30
0
 11
-25.6000390181488
 21
52.6911662705818
 31
0
  0
LINE
  5
0
  8
Slice
 10
-23.5000390181488
 20
52.1911662705817
 30
0
 11
-23.5000390181488
 21
49.1911662705818
 31
0
  0
LINE
  5
0
  8
Slice
 10
-20.400039018149
 20
40.4911662705816
 30
0
 11
-18.9000390181489
 21
40.4911662705816
 31
0
  0
LINE
  5
0
  8
Slice
 10
-18.300039018149
 20
35.7911662705817
 30
0
 11
-18.300039018149
 21
32.7911662705816
 31
0
  0
LINE
  5
0
  8
Slice
 10
-20.9000390181491
 20
43.9911662705817
 30
0
 11
-20.9000390181491
 21
40.9911662705818
 31
0
  0
LINE
  5
0
  8
Slice
 10
-11.1000390181489
 20
52.6911662705818
 30
0
 11
-12.6000390181489
 21
52.6911662705818
 31
0
  0
LINE
  5
0
  8
Slice
 10
-21.0000390181489
 20
45.0911662705816
 30
0
 11
-21.0000390181489
 21
48.0911662705817
 31
0
  0
LINE
  5
0
  8
Slice
 10
-20.9000390181491
 20
56.2911662705817
 30
0
 11
-20.9000390181491
 21
53.2911662705816
 31
0
  0
LINE
  5
0
  8
Slice
 10
-15.7000390181488
 20
56.2911662705817
 30
0
 11
-15.7000390181488
 21
53.2911662705816
 31
0
  0
LINE
  5
0
  8
Slice
 10
-8.000039018149
 20
49.1911662705818
 30
0
 11
-8.000039018149
 21
52.1911662705817
 31
0
  0
LINE
  5
0
  8
Slice
 10
-15.2000390181486
 20
40.4911662705816
 30
0
 11
-13.7000390181486
 21
40.4911662705816
 31
0
  0
LINE
  5
0
  8
Slice
 10
-23.0000390181491
 20
56.8911662705818
 30
0
 11
-21.5000390181491
 21
56.8911662705818
 31
0
  0
LINE
  5
0
  8
Slice
 10
-10.5000390181489
 20
56.2911662705817
 30
0
 11
-10.5000390181489
 21
53.2911662705816
 31
0
  0
LINE
  5
0
  8
Slice
 10
-8.000039018149
 20
45.0911662705816
 30
0
 11
-8.000039018149
 21
48.0911662705817
 31
0
  0
LINE
  5
0
  8
Slice
 10
-13.2000390181489
 20
61.4911662705816
 30
0
 11
-13.2000390181489
 21
64.4911662705817
 31
0
  0
LINE
  5
0
  8
Slice
 10
-13.7000390181486
 20
69.0911662705818
 30
0
 11
-15.2000390181486
 21
69.0911662705818
 31
0
  0
LINE
  5
0
  8
Slice
 10
-36.6000390181488
 20
69.6911662705816
 30
0
 11
-36.6000390181488
 21
72.6911662705817
 31
0
  0
LINE
  5
0
  8
Slice
 10
-8.000039018149
 20
36.8911662705818
 30
0
 11
-8.000039018149
 21
39.8911662705817
 31
0
  0
LINE
  5
0
  8
Slice
 10
-12.6000390181489
 20
19.9911662705817
 30
0
 11
-11.1000390181489
 21
19.9911662705817
 31
0
  0
LINE
  5
0
  8
Slice
 10
-23.6000390181491
 20
53.2911662705816
 30
0
 11
-23.6000390181491
 21
56.2911662705817
 31
0
  0
LINE
  5
0
  8
Slice
 10
-12.6000390181489
 20
32.2911662705816
 30
0
 11
-11.1000390181489
 21
32.2911662705816
 31
0
  0
LINE
  5
0
  8
Slice
 10
-26.100039018149
 20
68.5911662705819
 30
0
 11
-26.100039018149
 21
65.5911662705818
 31
0
  0
LINE
  5
0
  8
Slice
 10
-18.9000390181489
 20
77.2911662705818
 30
0
 11
-20.400039018149
 21
77.2911662705818
 31
0
  0
LINE
  5
0
  8
Slice
 10
-10.0000390181488
 20
28.1911662705817
 30
0
 11
-8.50003901814916
 21
28.1911662705817
 31
0
  0
LINE
  5
0
  8
Slice
 10
-15.800039018149
 20
40.9911662705818
 30
0
 11
-15.800039018149
 21
43.9911662705817
 31
0
  0
LINE
  5
0
  8
Slice
 10
-10.5000390181489
 20
48.0911662705817
 30
0
 11
-10.5000390181489
 21
45.0911662705816
 31
0
  0
LINE
  5
0
  8
Slice
 10
-38.600039018149
 20
56.8911662705818
 30
0
 11
-37.1000390181489
 21
56.8911662705818
 31
0
  0
LINE
  5
0
  8
Slice
 10
-11.1000390181489
 20
32.1911662705817
 30
0
 11
-12.6000390181489
 21
32.1911662705817
 31
0
  0
LINE
  5
0
  8
Slice
 10
-21.5000390181491
 20
77.2911662705818
 30
0
 11
-23.0000390181491
 21
77.2911662705818
 31
0
  0
LINE
  5
0
  8
Slice
 10
-13.2000390181489
 20
45.0911662705816
 30
0
 11
-13.2000390181489
 21
48.0911662705817
 31
0
  0
LINE
  5
0
  8
Slice
 10
-24.1000390181488
 20
69.0911662705818
 30
0
 11
-25.6000390181488
 21
69.0911662705818
 31
0
  0
LINE
  5
0
  8
Slice
 10
-13.1000390181491
 20
43.9911662705817
 30
0
 11
-13.1000390181491
 21
40.9911662705818
 31
0
  0
LINE
  5
0
  8
Slice
 10
-18.300039018149
 20
43.9911662705817
 30
0
 11
-18.300039018149
 21
40.9911662705818
 31
0
  0
LINE
  5
0
  8
Slice
 10
-23.0000390181491
 20
52.7911662705816
 30
0
 11
-21.5000390181491
 21
52.7911662705816
 31
0
  0
LINE
  5
0
  8
Slice
 10
-18.4000390181492
 20
73.7911662705818
 30
0
 11
-18.4000390181492
 21
76.7911662705819
 31
0
  0
LINE
  5
0
  8
Slice
 10
-10.6000390181487
 20
73.7911662705818
 30
0
 11
-10.6000390181487
 21
76.7911662705819
 31
0
  0
LINE
  5
0
  8
Slice
 10
-28.8000390181491
 20
53.2911662705816
 30
0
 11
-28.8000390181491
 21
56.2911662705817
 31
0
  0
LINE
  5
0
  8
Slice
 10
-24.1000390181488
 20
56.7911662705816
 30
0
 11
-25.6000390181488
 21
56.7911662705816
 31
0
  0
LINE
  5
0
  8
Slice
 10
-18.4000390181492
 20
45.0911662705816
 30
0
 11
-18.4000390181492
 21
48.0911662705817
 31
0
  0
LINE
  5
0
  8
Slice
 10
-28.7000390181487
 20
68.5911662705819
 30
0
 11
-28.7000390181487
 21
65.5911662705818
 31
0
  0
LINE
  5
0
  8
Slice
 10
-38.600039018149
 20
60.9911662705816
 30
0
 11
-37.1000390181489
 21
60.9911662705816
 31
0
  0
LINE
  5
0
  8
Slice
 10
-15.7000390181488
 20
72.6911662705817
 30
0
 11
-15.7000390181488
 21
69.6911662705816
 31
0
  0
LINE
  5
0
  8
Slice
 10
-24.1000390181488
 20
64.9911662705816
 30
0
 11
-25.6000390181488
 21
64.9911662705816
 31
0
  0
LINE
  5
0
  8
Slice
 10
-36.500039018149
 20
68.5911662705819
 30
0
 11
-36.500039018149
 21
65.5911662705818
 31
0
  0
LINE
  5
0
  8
Slice
 10
-12.6000390181489
 20
28.1911662705817
 30
0
 11
-11.1000390181489
 21
28.1911662705817
 31
0
  0
LINE
  5
0
  8
Slice
 10
-28.200039018149
 20
44.5911662705816
 30
0
 11
-26.7000390181489
 21
44.5911662705816
 31
0
  0
LINE
  5
0
  8
Slice
 10
-34.5000390181488
 20
60.8911662705818
 30
0
 11
-36.0000390181488
 21
60.8911662705818
 31
0
  0
LINE
  5
0
  8
Slice
 10
-15.800039018149
 20
49.1911662705818
 30
0
 11
-15.800039018149
 21
52.1911662705817
 31
0
  0
LINE
  5
0
  8
Slice
 10
-31.300039018149
 20
43.9911662705817
 30
0
 11
-31.300039018149
 21
40.9911662705818
 31
0
  0
LINE
  5
0
  8
Slice
 10
-13.1000390181491
 20
60.3911662705819
 30
0
 11
-13.1000390181491
 21
57.3911662705818
 31
0
  0
LINE
  5
0
  8
Slice
 10
-10.0000390181488
 20
32.2911662705816
 30
0
 11
-8.50003901814916
 21
32.2911662705816
 31
0
  0
LINE
  5
0
  8
Slice
 10
-18.4000390181492
 20
36.8911662705818
 30
0
 11
-18.4000390181492
 21
39.8911662705817
 31
0
  0
LINE
  5
0
  8
Slice
 10
-13.7000390181486
 20
77.2911662705818
 30
0
 11
-15.2000390181486
 21
77.2911662705818
 31
0
  0
LINE
  5
0
  8
Slice
 10
-8.000039018149
 20
73.7911662705818
 30
0
 11
-8.000039018149
 21
76.7911662705819
 31
0
  0
LINE
  5
0
  8
Slice
 10
-28.8000390181491
 20
61.4911662705816
 30
0
 11
-28.8000390181491
 21
64.4911662705817
 31
0
  0
LINE
  5
0
  8
Slice
 10
-8.50003901814916
 20
64.9911662705816
 30
0
 11
-10.0000390181488
 21
64.9911662705816
 31
0
  0
LINE
  5
0
  8
Slice
 10
-15.7000390181488
 20
60.3911662705819
 30
0
 11
-15.7000390181488
 21
57.3911662705818
 31
0
  0
LINE
  5
0
  8
Slice
 10
-10.5000390181489
 20
27.5911662705817
 30
0
 11
-10.5000390181489
 21
24.5911662705816
 31
0
  0
LINE
  5
0
  8
Slice
 10
-31.9000390181489
 20
44.4911662705816
 30
0
 11
-33.400039018149
 21
44.4911662705816
 31
0
  0
LINE
  5
0
  8
Slice
 10
-28.200039018149
 20
73.2911662705818
 30
0
 11
-26.7000390181489
 21
73.2911662705818
 31
0
  0
LINE
  5
0
  8
Slice
 10
-8.000039018149
 20
40.9911662705818
 30
0
 11
-8.000039018149
 21
43.9911662705817
 31
0
  0
LINE
  5
0
  8
Slice
 10
-31.4000390181488
 20
53.2911662705816
 30
0
 11
-31.4000390181488
 21
56.2911662705817
 31
0
  0
LINE
  5
0
  8
Slice
 10
-39.1000390181487
 20
68.5911662705819
 30
0
 11
-39.1000390181487
 21
65.5911662705818
 31
0
  0
LINE
  5
0
  8
Slice
 10
-21.5000390181491
 20
60.8911662705818
 30
0
 11
-23.0000390181491
 21
60.8911662705818
 31
0
  0
LINE
  5
0
  8
Slice
 10
-15.7000390181488
 20
27.5911662705817
 30
0
 11
-15.7000390181488
 21
24.5911662705816
 31
0
  0
LINE
  5
0
  8
Slice
 10
-13.2000390181489
 20
36.8911662705818
 30
0
 11
-13.2000390181489
 21
39.8911662705817
 31
0
  0
LINE
  5
0
  8
Slice
 10
-20.9000390181491
 20
76.7911662705819
 30
0
 11
-20.9000390181491
 21
73.7911662705818
 31
0
  0
LINE
  5
0
  8
Slice
 10
-12.6000390181489
 20
56.8911662705818
 30
0
 11
-11.1000390181489
 21
56.8911662705818
 31
0
  0
LINE
  5
0
  8
Slice
 10
-10.6000390181487
 20
45.0911662705816
 30
0
 11
-10.6000390181487
 21
48.0911662705817
 31
0
  0
LINE
  5
0
  8
Slice
 10
-18.9000390181489
 20
56.7911662705816
 30
0
 11
-20.400039018149
 21
56.7911662705816
 31
0
  0
LINE
  5
0
  8
Slice
 10
-23.6000390181491
 20
65.5911662705818
 30
0
 11
-23.6000390181491
 21
68.5911662705819
 31
0
  0
LINE
  5
0
  8
Slice
 10
-18.300039018149
 20
27.5911662705817
 30
0
 11
-18.300039018149
 21
24.5911662705816
 31
0
  0
LINE
  5
0
  8
Slice
 10
-24.1000390181488
 20
44.4911662705816
 30
0
 11
-25.6000390181488
 21
44.4911662705816
 31
0
  0
LINE
  5
0
  8
Slice
 10
-25.6000390181488
 20
60.9911662705816
 30
0
 11
-24.1000390181488
 21
60.9911662705816
 31
0
  0
LINE
  5
0
  8
Slice
 10
-37.1000390181489
 20
52.6911662705818
 30
0
 11
-38.600039018149
 21
52.6911662705818
 31
0
  0
LINE
  5
0
  8
Slice
 10
-37.1000390181489
 20
60.8911662705818
 30
0
 11
-38.600039018149
 21
60.8911662705818
 31
0
  0
LINE
  5
0
  8
Slice
 10
-7.00003901814866
 20
78
 30
0
 11
-7.00003901814911
 21
19
 31
0
  0
LINE
  5
0
  8
Slice
 10
-36.6000390181488
 20
45.0911662705816
 30
0
 11
-36.6000390181488
 21
48.0911662705817
 31
0
  0
LINE
  5
0
  8
Slice
 10
-29.3000390181488
 20
56.7911662705816
 30
0
 11
-30.8000390181488
 21
56.7911662705816
 31
0
  0
LINE
  5
0
  8
Slice
 10
-30.8000390181488
 20
56.8911662705818
 30
0
 11
-29.3000390181488
 21
56.8911662705818
 31
0
  0
LINE
  5
0
  8
Slice
 10
-39.1000390181487
 20
60.3911662705819
 30
0
 11
-39.1000390181487
 21
57.3911662705818
 31
0
  0
LINE
  5
0
  8
Slice
 10
-36.0000390181488
 20
44.5911662705816
 30
0
 11
-34.5000390181488
 21
44.5911662705816
 31
0
  0
LINE
  5
0
  8
Slice
 10
-28.200039018149
 20
56.8911662705818
 30
0
 11
-26.7000390181489
 21
56.8911662705818
 31
0
  0
LINE
  5
0
  8
Slice
 10
-20.9000390181491
 20
52.1911662705817
 30
0
 11
-20.9000390181491
 21
49.1911662705818
 31
0
  0
LINE
  5
0
  8
Slice
 10
-36.6000390181488
 20
73.7911662705818
 30
0
 11
-36.6000390181488
 21
76.7911662705819
 31
0
  0
LINE
  5
0
  8
Slice
 10
-13.1000390181491
 20
68.5911662705819
 30
0
 11
-13.1000390181491
 21
65.5911662705818
 31
0
  0
LINE
  5
0
  8
Slice
 10
-31.4000390181488
 20
45.0911662705816
 30
0
 11
-31.4000390181488
 21
48.0911662705817
 31
0
  0
LINE
  5
0
  8
Slice
 10
-26.100039018149
 20
72.6911662705817
 30
0
 11
-26.100039018149
 21
69.6911662705816
 31
0
  0
LINE
  5
0
  8
Slice
 10
-23.0000390181491
 20
69.1911662705816
 30
0
 11
-21.5000390181491
 21
69.1911662705816
 31
0
  0
LINE
  5
0
  8
Slice
 10
-31.300039018149
 20
48.0911662705817
 30
0
 11
-31.300039018149
 21
45.0911662705816
 31
0
  0
LINE
  5
0
  8
Slice
 10
-36.6000390181488
 20
65.5911662705818
 30
0
 11
-36.6000390181488
 21
68.5911662705819
 31
0
  0
LINE
  5
0
  8
Slice
 10
-33.9000390181487
 20
52.1911662705817
 30
0
 11
-33.9000390181487
 21
49.1911662705818
 31
0
  0
LINE
  5
0
  8
Slice
 10
-39.7000390181486
 20
48.0682417813339
 30
0
 11
-39.7000390181486
 21
78
 31
0
  0
LINE
  5
0
  8
Slice
 10
-20.9000390181491
 20
60.3911662705819
 30
0
 11
-20.9000390181491
 21
57.3911662705818
 31
0
  0
LINE
  5
0
  8
Slice
 10
-13.2000390181489
 20
28.6911662705818
 30
0
 11
-13.2000390181489
 21
31.6911662705817
 31
0
  0
LINE
  5
0
  8
Slice
 10
-21.5000390181491
 20
73.1911662705816
 30
0
 11
-23.0000390181491
 21
73.1911662705816
 31
0
  0
LINE
  5
0
  8
Slice
 10
-15.800039018149
 20
65.5911662705818
 30
0
 11
-15.800039018149
 21
68.5911662705819
 31
0
  0
LINE
  5
0
  8
Slice
 10
-23.0000390181491
 20
36.3911662705819
 30
0
 11
-21.5000390181491
 21
36.3911662705819
 31
0
  0
LINE
  5
0
  8
Slice
 10
-18.300039018149
 20
72.6911662705817
 30
0
 11
-18.300039018149
 21
69.6911662705816
 31
0
  0
LINE
  5
0
  8
Slice
 10
-31.9000390181489
 20
60.8911662705818
 30
0
 11
-33.400039018149
 21
60.8911662705818
 31
0
  0
LINE
  5
0
  8
Slice
 10
-38.600039018149
 20
69.1911662705816
 30
0
 11
-37.1000390181489
 21
69.1911662705816
 31
0
  0
LINE
  5
0
  8
Slice
 10
-16.3000390181492
 20
77.2911662705818
 30
0
 11
-17.8000390181492
 21
77.2911662705818
 31
0
  0
LINE
  5
0
  8
Slice
 10
-36.0000390181488
 20
56.8911662705818
 30
0
 11
-34.5000390181488
 21
56.8911662705818
 31
0
  0
LINE
  5
0
  8
Slice
 10
-8.000039018149
 20
69.6911662705816
 30
0
 11
-8.000039018149
 21
72.6911662705817
 31
0
  0
LINE
  5
0
  8
Slice
 10
-21.0000390181489
 20
57.3911662705818
 30
0
 11
-21.0000390181489
 21
60.3911662705819
 31
0
  0
LINE
  5
0
  8
Slice
 10
-33.9000390181487
 20
43.9911662705817
 30
0
 11
-33.9000390181487
 21
40.9911662705818
 31
0
  0
LINE
  5
0
  8
Slice
 10
-23.6000390181491
 20
45.0911662705816
 30
0
 11
-23.6000390181491
 21
48.0911662705817
 31
0
  0
LINE
  5
0
  8
Slice
 10
-23.6000390181491
 20
40.9911662705818
 30
0
 11
-23.6000390181491
 21
43.9911662705817
 31
0
  0
LINE
  5
0
  8
Slice
 10
-31.300039018149
 20
72.6911662705817
 30
0
 11
-31.300039018149
 21
69.6911662705816
 31
0
  0
LINE
  5
0
  8
Slice
 10
-26.2000390181488
 20
65.5911662705818
 30
0
 11
-26.2000390181488
 21
68.5911662705819
 31
0
  0
LINE
  5
0
  8
Slice
 10
-33.400039018149
 20
65.0911662705818
 30
0
 11
-31.9000390181489
 21
65.0911662705818
 31
0
  0
LINE
  5
0
  8
Slice
 10
-17.8000390181492
 20
69.1911662705816
 30
0
 11
-16.3000390181492
 21
69.1911662705816
 31
0
  0
LINE
  5
0
  8
Slice
 10
-33.9000390181487
 20
56.2911662705817
 30
0
 11
-33.9000390181487
 21
53.2911662705816
 31
0
  0
LINE
  5
0
  8
Slice
 10
-21.0000390181489
 20
36.8911662705818
 30
0
 11
-21.0000390181489
 21
39.8911662705817
 31
0
  0
LINE
  5
0
  8
Slice
 10
-30.8000390181488
 20
44.5911662705816
 30
0
 11
-29.3000390181488
 21
44.5911662705816
 31
0
  0
LINE
  5
0
  8
Slice
 10
-10.6000390181487
 20
20.4911662705816
 30
0
 11
-10.6000390181487
 21
23.4911662705817
 31
0
  0
LINE
  5
0
  8
Slice
 10
-17.8000390181492
 20
44.5911662705816
 30
0
 11
-16.3000390181492
 21
44.5911662705816
 31
0
  0
LINE
  5
0
  8
Slice
 10
-13.7000390181486
 20
60.8911662705818
 30
0
 11
-15.2000390181486
 21
60.8911662705818
 31
0
  0
LINE
  5
0
  8
Slice
 10
-39.7000390181486
 20
48.0682417813339
 30
0
 11
-39.7000390181486
 21
44.7977507323044
 31
0
  0
LINE
  5
0
  8
Slice
 10
-17.8000390181492
 20
65.0911662705818
 30
0
 11
-16.3000390181492
 21
65.0911662705818
 31
0
  0
LINE
  5
0
  8
Slice
 10
-28.8000390181491
 20
45.0911662705816
 30
0
 11
-28.8000390181491
 21
48.0911662705817
 31
0
  0
LINE
  5
0
  8
Slice
 10
-17.8000390181492
 20
24.0911662705817
 30
0
 11
-16.3000390181492
 21
24.0911662705817
 31
0
  0
LINE
  5
0
  8
Slice
 10
-21.0000390181489
 20
32.7911662705816
 30
0
 11
-21.0000390181489
 21
35.7911662705817
 31
0
  0
LINE
  5
0
  8
Slice
 10
-33.400039018149
 20
48.6911662705818
 30
0
 11
-31.9000390181489
 21
48.6911662705818
 31
0
  0
LINE
  5
0
  8
Slice
 10
-29.3000390181488
 20
44.4911662705816
 30
0
 11
-30.8000390181488
 21
44.4911662705816
 31
0
  0
LINE
  5
0
  8
Slice
 10
-26.100039018149
 20
60.3911662705819
 30
0
 11
-26.100039018149
 21
57.3911662705818
 31
0
  0
LINE
  5
0
  8
Slice
 10
-28.8000390181491
 20
57.3911662705818
 30
0
 11
-28.8000390181491
 21
60.3911662705819
 31
0
  0
LINE
  5
0
  8
Slice
 10
-15.800039018149
 20
28.6911662705818
 30
0
 11
-15.800039018149
 21
31.6911662705817
 31
0
  0
LINE
  5
0
  8
Slice
 10
-34.0000390181491
 20
57.3911662705818
 30
0
 11
-34.0000390181491
 21
60.3911662705819
 31
0
  0
LINE
  5
0
  8
Slice
 10
-25.6000390181488
 20
40.4911662705816
 30
0
 11
-24.1000390181488
 21
40.4911662705816
 31
0
  0
LINE
  5
0
  8
Slice
 10
-8.50003901814916
 20
32.1911662705817
 30
0
 11
-10.0000390181488
 21
32.1911662705817
 31
0
  0
LINE
  5
0
  8
Slice
 10
-20.9000390181491
 20
48.0911662705817
 30
0
 11
-20.9000390181491
 21
45.0911662705816
 31
0
  0
LINE
  5
0
  8
Slice
 10
-15.2000390181486
 20
52.7911662705816
 30
0
 11
-13.7000390181486
 21
52.7911662705816
 31
0
  0
LINE
  5
0
  8
Slice
 10
-8.50003901814916
 20
56.7911662705816
 30
0
 11
-10.0000390181488
 21
56.7911662705816
 31
0
  0
LINE
  5
0
  8
Slice
 10
-33.400039018149
 20
52.7911662705816
 30
0
 11
-31.9000390181489
 21
52.7911662705816
 31
0
  0
LINE
  5
0
  8
Slice
 10
-8.50003901814916
 20
52.6911662705818
 30
0
 11
-10.0000390181488
 21
52.6911662705818
 31
0
  0
LINE
  5
0
  8
Slice
 10
-15.2000390181486
 20
56.8911662705818
 30
0
 11
-13.7000390181486
 21
56.8911662705818
 31
0
  0
LINE
  5
0
  8
Slice
 10
-15.800039018149
 20
45.0911662705816
 30
0
 11
-15.800039018149
 21
48.0911662705817
 31
0
  0
LINE
  5
0
  8
Slice
 10
-33.400039018149
 20
44.5911662705816
 30
0
 11
-31.9000390181489
 21
44.5911662705816
 31
0
  0
LINE
  5
0
  8
Slice
 10
-11.1000390181489
 20
44.4911662705816
 30
0
 11
-12.6000390181489
 21
44.4911662705816
 31
0
  0
LINE
  5
0
  8
Slice
 10
-34.5000390181488
 20
56.7911662705816
 30
0
 11
-36.0000390181488
 21
56.7911662705816
 31
0
  0
LINE
  5
0
  8
Slice
 10
-10.6000390181487
 20
28.6911662705818
 30
0
 11
-10.6000390181487
 21
31.6911662705817
 31
0
  0
LINE
  5
0
  8
Slice
 10
-31.4000390181488
 20
40.9911662705818
 30
0
 11
-31.4000390181488
 21
43.9911662705817
 31
0
  0
LINE
  5
0
  8
Slice
 10
-12.6000390181489
 20
36.3911662705819
 30
0
 11
-11.1000390181489
 21
36.3911662705819
 31
0
  0
LINE
  5
0
  8
Slice
 10
-15.7000390181488
 20
43.9911662705817
 30
0
 11
-15.7000390181488
 21
40.9911662705818
 31
0
  0
LINE
  5
0
  8
Slice
 10
-34.5000390181488
 20
69.0911662705818
 30
0
 11
-36.0000390181488
 21
69.0911662705818
 31
0
  0
LINE
  5
0
  8
Slice
 10
-8.50003901814916
 20
28.0911662705817
 30
0
 11
-10.0000390181488
 21
28.0911662705817
 31
0
  0
LINE
  5
0
  8
Slice
 10
-15.800039018149
 20
53.2911662705816
 30
0
 11
-15.800039018149
 21
56.2911662705817
 31
0
  0
LINE
  5
0
  8
Slice
 10
-15.800039018149
 20
57.3911662705818
 30
0
 11
-15.800039018149
 21
60.3911662705819
 31
0
  0
LINE
  5
0
  8
Slice
 10
-10.6000390181487
 20
57.3911662705818
 30
0
 11
-10.6000390181487
 21
60.3911662705819
 31
0
  0
LINE
  5
0
  8
Slice
 10
-12.6000390181489
 20
44.5911662705816
 30
0
 11
-11.1000390181489
 21
44.5911662705816
 31
0
  0
LINE
  5
0
  8
Slice
 10
-26.2000390181488
 20
36.8911662705818
 30
0
 11
-26.2000390181488
 21
39.8911662705817
 31
0
  0
LINE
  5
0
  8
Slice
 10
-12.6000390181489
 20
24.0911662705817
 30
0
 11
-11.1000390181489
 21
24.0911662705817
 31
0
  0
LINE
  5
0
  8
Slice
 10
-28.200039018149
 20
69.1911662705816
 30
0
 11
-26.7000390181489
 21
69.1911662705816
 31
0
  0
LINE
  5
0
  8
Slice
 10
-18.300039018149
 20
39.8911662705817
 30
0
 11
-18.300039018149
 21
36.8911662705818
 31
0
  0
LINE
  5
0
  8
Slice
 10
-12.6000390181489
 20
48.6911662705818
 30
0
 11
-11.1000390181489
 21
48.6911662705818
 31
0
  0
LINE
  5
0
  8
Slice
 10
-18.9000390181489
 20
60.8911662705818
 30
0
 11
-20.400039018149
 21
60.8911662705818
 31
0
  0
LINE
  5
0
  8
Slice
 10
-11.1000390181489
 20
40.3911662705819
 30
0
 11
-12.6000390181489
 21
40.3911662705819
 31
0
  0
LINE
  5
0
  8
Slice
 10
-30.8000390181488
 20
40.4911662705816
 30
0
 11
-29.3000390181488
 21
40.4911662705816
 31
0
  0
LINE
  5
0
  8
Slice
 10
-23.5000390181488
 20
48.0911662705817
 30
0
 11
-23.5000390181488
 21
45.0911662705816
 31
0
  0
LINE
  5
0
  8
Slice
 10
-10.0000390181488
 20
24.0911662705817
 30
0
 11
-8.50003901814916
 21
24.0911662705817
 31
0
  0
LINE
  5
0
  8
Slice
 10
-20.400039018149
 20
36.3911662705819
 30
0
 11
-18.9000390181489
 21
36.3911662705819
 31
0
  0
LINE
  5
0
  8
Slice
 10
-15.2000390181486
 20
44.5911662705816
 30
0
 11
-13.7000390181486
 21
44.5911662705816
 31
0
  0
LINE
  5
0
  8
Slice
 10
-11.1000390181489
 20
36.2911662705817
 30
0
 11
-12.6000390181489
 21
36.2911662705817
 31
0
  0
LINE
  5
0
  8
Slice
 10
-8.50003901814916
 20
36.2911662705817
 30
0
 11
-10.0000390181488
 21
36.2911662705817
 31
0
  0
LINE
  5
0
  8
Slice
 10
-18.9000390181489
 20
69.0911662705818
 30
0
 11
-20.400039018149
 21
69.0911662705818
 31
0
  0
LINE
  5
0
  8
Slice
 10
-25.6000390181488
 20
69.1911662705816
 30
0
 11
-24.1000390181488
 21
69.1911662705816
 31
0
  0
LINE
  5
0
  8
Slice
 10
-10.0000390181488
 20
19.9911662705817
 30
0
 11
-8.50003901814916
 21
19.9911662705817
 31
0
  0
LINE
  5
0
  8
Slice
 10
-23.5000390181488
 20
76.7911662705819
 30
0
 11
-23.5000390181488
 21
73.7911662705818
 31
0
  0
LINE
  5
0
  8
Slice
 10
-15.2000390181486
 20
73.2911662705818
 30
0
 11
-13.7000390181486
 21
73.2911662705818
 31
0
  0
LINE
  5
0
  8
Slice
 10
-13.1000390181491
 20
31.6911662705817
 30
0
 11
-13.1000390181491
 21
28.6911662705818
 31
0
  0
LINE
  5
0
  8
Slice
 10
-10.5000390181489
 20
68.5911662705819
 30
0
 11
-10.5000390181489
 21
65.5911662705818
 31
0
  0
LINE
  5
0
  8
Slice
 10
-25.6000390181488
 20
52.7911662705816
 30
0
 11
-24.1000390181488
 21
52.7911662705816
 31
0
  0
LINE
  5
0
  8
Slice
 10
-23.6000390181491
 20
73.7911662705818
 30
0
 11
-23.6000390181491
 21
76.7911662705819
 31
0
  0
LINE
  5
0
  8
Slice
 10
-15.2000390181486
 20
69.1911662705816
 30
0
 11
-13.7000390181486
 21
69.1911662705816
 31
0
  0
LINE
  5
0
  8
Slice
 10
-38.600039018149
 20
48.6911662705818
 30
0
 11
-37.1000390181489
 21
48.6911662705818
 31
0
  0
LINE
  5
0
  8
Slice
 10
-16.3000390181492
 20
73.1911662705816
 30
0
 11
-17.8000390181492
 21
73.1911662705816
 31
0
  0
LINE
  5
0
  8
Slice
 10
-36.500039018149
 20
76.7911662705819
 30
0
 11
-36.500039018149
 21
73.7911662705818
 31
0
  0
LINE
  5
0
  8
Slice
 10
-23.5000390181488
 20
72.6911662705817
 30
0
 11
-23.5000390181488
 21
69.6911662705816
 31
0
  0
LINE
  5
0
  8
Slice
 10
-28.8000390181491
 20
69.6911662705816
 30
0
 11
-28.8000390181491
 21
72.6911662705817
 31
0
  0
LINE
  5
0
  8
Slice
 10
-15.2000390181486
 20
24.0911662705817
 30
0
 11
-13.7000390181486
 21
24.0911662705817
 31
0
  0
LINE
  5
0
  8
Slice
 10
-10.0000390181488
 20
44.5911662705816
 30
0
 11
-8.50003901814916
 21
44.5911662705816
 31
0
  0
LINE
  5
0
  8
Slice
 10
-13.1000390181491
 20
52.1911662705817
 30
0
 11
-13.1000390181491
 21
49.1911662705818
 31
0
  0
LINE
  5
0
  8
Slice
 10
-15.800039018149
 20
69.6911662705816
 30
0
 11
-15.800039018149
 21
72.6911662705817
 31
0
  0
LINE
  5
0
  8
Slice
 10
-23.5000390181488
 20
60.3911662705819
 30
0
 11
-23.5000390181488
 21
57.3911662705818
 31
0
  0
LINE
  5
0
  8
Slice
 10
-16.3000390181492
 20
28.0911662705817
 30
0
 11
-17.8000390181492
 21
28.0911662705817
 31
0
  0
LINE
  5
0
  8
Slice
 10
-18.9000390181489
 20
52.6911662705818
 30
0
 11
-20.400039018149
 21
52.6911662705818
 31
0
  0
LINE
  5
0
  8
Slice
 10
-10.0000390181488
 20
40.4911662705816
 30
0
 11
-8.50003901814916
 21
40.4911662705816
 31
0
  0
LINE
  5
0
  8
Slice
 10
-10.6000390181487
 20
24.5911662705816
 30
0
 11
-10.6000390181487
 21
27.5911662705817
 31
0
  0
LINE
  5
0
  8
Slice
 10
-21.5000390181491
 20
48.5911662705816
 30
0
 11
-23.0000390181491
 21
48.5911662705816
 31
0
  0
LINE
  5
0
  8
Slice
 10
-8.000039018149
 20
53.2911662705816
 30
0
 11
-8.000039018149
 21
56.2911662705817
 31
0
  0
LINE
  5
0
  8
Slice
 10
-11.1000390181489
 20
60.8911662705818
 30
0
 11
-12.6000390181489
 21
60.8911662705818
 31
0
  0
LINE
  5
0
  8
Slice
 10
-24.1000390181488
 20
60.8911662705818
 30
0
 11
-25.6000390181488
 21
60.8911662705818
 31
0
  0
LINE
  5
0
  8
Slice
 10
-21.5000390181491
 20
52.6911662705818
 30
0
 11
-23.0000390181491
 21
52.6911662705818
 31
0
  0
LINE
  5
0
  8
Slice
 10
-13.2000390181489
 20
57.3911662705818
 30
0
 11
-13.2000390181489
 21
60.3911662705819
 31
0
  0
LINE
  5
0
  8
Slice
 10
-10.0000390181488
 20
56.8911662705818
 30
0
 11
-8.50003901814916
 21
56.8911662705818
 31
0
  0
LINE
  5
0
  8
Slice
 10
-17.8000390181492
 20
28.1911662705817
 30
0
 11
-16.3000390181492
 21
28.1911662705817
 31
0
  0
LINE
  5
0
  8
Slice
 10
-20.400039018149
 20
52.7911662705816
 30
0
 11
-18.9000390181489
 21
52.7911662705816
 31
0
  0
LINE
  5
0
  8
Slice
 10
-16.3000390181492
 20
56.7911662705816
 30
0
 11
-17.8000390181492
 21
56.7911662705816
 31
0
  0
LINE
  5
0
  8
Slice
 10
-33.400039018149
 20
73.2911662705818
 30
0
 11
-31.9000390181489
 21
73.2911662705818
 31
0
  0
LINE
  5
0
  8
Slice
 10
-13.7000390181486
 20
73.1911662705816
 30
0
 11
-15.2000390181486
 21
73.1911662705816
 31
0
  0
LINE
  5
0
  8
Slice
 10
-15.7000390181488
 20
31.6911662705817
 30
0
 11
-15.7000390181488
 21
28.6911662705818
 31
0
  0
LINE
  5
0
  8
Slice
 10
-8.000039018149
 20
20.4911662705816
 30
0
 11
-8.000039018149
 21
23.4911662705817
 31
0
  0
LINE
  5
0
  8
Slice
 10
-26.100039018149
 20
39.8911662705817
 30
0
 11
-26.100039018149
 21
36.8911662705818
 31
0
  0
LINE
  5
0
  8
Slice
 10
-24.1000390181488
 20
77.2911662705818
 30
0
 11
-25.6000390181488
 21
77.2911662705818
 31
0
  0
LINE
  5
0
  8
Slice
 10
-17.8000390181492
 20
73.2911662705818
 30
0
 11
-16.3000390181492
 21
73.2911662705818
 31
0
  0
LINE
  5
0
  8
Slice
 10
-39.7000390181486
 20
78
 30
0
 11
-7.00003901814866
 21
78
 31
0
  0
LINE
  5
0
  8
Slice
 10
-23.5000390181488
 20
35.7911662705817
 30
0
 11
-23.5000390181488
 21
32.7911662705816
 31
0
  0
LINE
  5
0
  8
Slice
 10
-12.6000390181489
 20
69.1911662705816
 30
0
 11
-11.1000390181489
 21
69.1911662705816
 31
0
  0
LINE
  5
0
  8
Slice
 10
-15.7000390181488
 20
76.7911662705819
 30
0
 11
-15.7000390181488
 21
73.7911662705818
 31
0
  0
LINE
  5
0
  8
Slice
 10
-18.300039018149
 20
76.7911662705819
 30
0
 11
-18.300039018149
 21
73.7911662705818
 31
0
  0
LINE
  5
0
  8
Slice
 10
-13.2000390181489
 20
69.6911662705816
 30
0
 11
-13.2000390181489
 21
72.6911662705817
 31
0
  0
LINE
  5
0
  8
Slice
 10
-16.3000390181492
 20
36.2911662705817
 30
0
 11
-17.8000390181492
 21
36.2911662705817
 31
0
  0
LINE
  5
0
  8
Slice
 10
-26.2000390181488
 20
61.4911662705816
 30
0
 11
-26.2000390181488
 21
64.4911662705817
 31
0
  0
LINE
  5
0
  8
Slice
 10
-7.00003901814911
 20
19
 30
0
 11
-13.1316042167508
 21
19
 31
0
  0
LINE
  5
0
  8
Slice
 10
-13.2000390181489
 20
32.7911662705816
 30
0
 11
-13.2000390181489
 21
35.7911662705817
 31
0
  0
LINE
  5
0
  8
Slice
 10
-10.0000390181488
 20
52.7911662705816
 30
0
 11
-8.50003901814916
 21
52.7911662705816
 31
0
  0
LINE
  5
0
  8
Slice
 10
-10.5000390181489
 20
52.1911662705817
 30
0
 11
-10.5000390181489
 21
49.1911662705818
 31
0
  0
LINE
  5
0
  8
Slice
 10
-13.7000390181486
 20
52.6911662705818
 30
0
 11
-15.2000390181486
 21
52.6911662705818
 31
0
  0
LINE
  5
0
  8
Slice
 10
-8.50003901814916
 20
60.8911662705818
 30
0
 11
-10.0000390181488
 21
60.8911662705818
 31
0
  0
LINE
  5
0
  8
Slice
 10
-10.5000390181489
 20
72.6911662705817
 30
0
 11
-10.5000390181489
 21
69.6911662705816
 31
0
  0
LINE
  5
0
  8
Slice
 10
-29.3000390181488
 20
64.9911662705816
 30
0
 11
-30.8000390181488
 21
64.9911662705816
 31
0
  0
LINE
  5
0
  8
Slice
 10
-12.6000390181489
 20
73.2911662705818
 30
0
 11
-11.1000390181489
 21
73.2911662705818
 31
0
  0
LINE
  5
0
  8
Slice
 10
-11.1000390181489
 20
73.1911662705816
 30
0
 11
-12.6000390181489
 21
73.1911662705816
 31
0
  0
LINE
  5
0
  8
Slice
 10
-13.1316042167508
 20
19
 30
0
 11
-39.7000390181486
 21
44.7977507323044
 31
0
  0
LINE
  5
0
  8
Slice
 10
-20.9000390181491
 20
68.5911662705819
 30
0
 11
-20.9000390181491
 21
65.5911662705818
 31
0
  0
LINE
  5
0
  8
Slice
 10
-10.6000390181487
 20
69.6911662705816
 30
0
 11
-10.6000390181487
 21
72.6911662705817
 31
0
  0
LINE
  5
0
  8
Slice
 10
-18.4000390181492
 20
40.9911662705818
 30
0
 11
-18.4000390181492
 21
43.9911662705817
 31
0
  0
LINE
  5
0
  8
Slice
 10
-26.7000390181489
 20
52.6911662705818
 30
0
 11
-28.200039018149
 21
52.6911662705818
 31
0
  0
LINE
  5
0
  8
Slice
 10
-18.300039018149
 20
56.2911662705817
 30
0
 11
-18.300039018149
 21
53.2911662705816
 31
0
  0
LINE
  5
0
  8
Slice
 10
-23.5000390181488
 20
68.5911662705819
 30
0
 11
-23.5000390181488
 21
65.5911662705818
 31
0
  0
LINE
  5
0
  8
Slice
 10
-10.6000390181487
 20
65.5911662705818
 30
0
 11
-10.6000390181487
 21
68.5911662705819
 31
0
  0
LINE
  5
0
  8
Slice
 10
-13.7000390181486
 20
32.1911662705817
 30
0
 11
-15.2000390181486
 21
32.1911662705817
 31
0
  0
LINE
  5
0
  8
Slice
 10
-33.400039018149
 20
69.1911662705816
 30
0
 11
-31.9000390181489
 21
69.1911662705816
 31
0
  0
LINE
  5
0
  8
Slice
 10
-28.200039018149
 20
60.9911662705816
 30
0
 11
-26.7000390181489
 21
60.9911662705816
 31
0
  0
LINE
  5
0
  8
Slice
 10
-8.000039018149
 20
57.3911662705818
 30
0
 11
-8.000039018149
 21
60.3911662705819
 31
0
  0
LINE
  5
0
  8
Slice
 10
-10.5000390181489
 20
60.3911662705819
 30
0
 11
-10.5000390181489
 21
57.3911662705818
 31
0
  0
LINE
  5
0
  8
Slice
 10
-28.200039018149
 20
36.3911662705819
 30
0
 11
-26.7000390181489
 21
36.3911662705819
 31
0
  0
LINE
  5
0
  8
Slice
 10
-20.9000390181491
 20
39.8911662705817
 30
0
 11
-20.9000390181491
 21
36.8911662705818
 31
0
  0
LINE
  5
0
  8
Slice
 10
-30.8000390181488
 20
60.9911662705816
 30
0
 11
-29.3000390181488
 21
60.9911662705816
 31
0
  0
LINE
  5
0
  8
Slice
 10
-18.4000390181492
 20
53.2911662705816
 30
0
 11
-18.4000390181492
 21
56.2911662705817
 31
0
  0
LINE
  5
0
  8
Slice
 10
-18.300039018149
 20
31.6911662705817
 30
0
 11
-18.300039018149
 21
28.6911662705818
 31
0
  0
LINE
  5
0
  8
Slice
 10
-23.0000390181491
 20
32.2911662705816
 30
0
 11
-21.5000390181491
 21
32.2911662705816
 31
0
  0
LINE
  5
0
  8
Slice
 10
-8.000039018149
 20
24.5911662705816
 30
0
 11
-8.000039018149
 21
27.5911662705817
 31
0
  0
LINE
  5
0
  8
Slice
 10
-21.0000390181489
 20
40.9911662705818
 30
0
 11
-21.0000390181489
 21
43.9911662705817
 31
0
  0
ARC
  5
0
  8
Slice
 10
-33.400039018149
 20
43.9911662705817
 30
0
 40
0.499999999999893
 50
90
 51
180
  0
ARC
  5
0
  8
Slice
 10
-21.5000390181491
 20
32.7911662705816
 30
0
 40
0.499999999999929
 50
-90
 51
0
  0
ARC
  5
0
  8
Slice
 10
-15.2000390181486
 20
52.1911662705817
 30
0
 40
0.500000000000206
 50
90
 51
180
  0
ARC
  5
0
  8
Slice
 10
-16.3000390181492
 20
48.0911662705817
 30
0
 40
0.500000000000197
 50
0
 51
90
  0
ARC
  5
0
  8
Slice
 10
-20.400039018149
 20
43.9911662705817
 30
0
 40
0.499999999999893
 50
90
 51
180
  0
ARC
  5
0
  8
Slice
 10
-11.1000390181489
 20
28.6911662705818
 30
0
 40
0.500000000000195
 50
-90
 51
0
  0
ARC
  5
0
  8
Slice
 10
-17.8000390181492
 20
61.4911662705816
 30
0
 40
0.499999999999712
 50
180
 51
270
  0
ARC
  5
0
  8
Slice
 10
-21.5000390181491
 20
53.2911662705816
 30
0
 40
0.499999999999893
 50
-90
 51
0
  0
ARC
  5
0
  8
Slice
 10
-12.6000390181489
 20
45.0911662705816
 30
0
 40
0.500000000000199
 50
180
 51
270
  0
ARC
  5
0
  8
Slice
 10
-12.6000390181489
 20
32.7911662705816
 30
0
 40
0.500000000000199
 50
180
 51
270
  0
ARC
  5
0
  8
Slice
 10
-28.200039018149
 20
48.0911662705817
 30
0
 40
0.499999999999893
 50
90
 51
180
  0
ARC
  5
0
  8
Slice
 10
-25.6000390181488
 20
65.5911662705818
 30
0
 40
0.500000000000203
 50
180
 51
270
  0
ARC
  5
0
  8
Slice
 10
-25.6000390181488
 20
49.1911662705818
 30
0
 40
0.500000000000203
 50
180
 51
270
  0
ARC
  5
0
  8
Slice
 10
-13.7000390181486
 20
36.8911662705818
 30
0
 40
0.499999999999929
 50
-90
 51
0
  0
ARC
  5
0
  8
Slice
 10
-36.0000390181488
 20
45.0911662705816
 30
0
 40
0.500000000000206
 50
180
 51
270
  0
ARC
  5
0
  8
Slice
 10
-17.8000390181492
 20
57.3911662705818
 30
0
 40
0.499999999999712
 50
180
 51
270
  0
ARC
  5
0
  8
Slice
 10
-10.0000390181488
 20
61.4911662705816
 30
0
 40
0.500000000000099
 50
180
 51
270
  0
ARC
  5
0
  8
Slice
 10
-23.0000390181491
 20
72.6911662705817
 30
0
 40
0.499999999999858
 50
90
 51
180
  0
ARC
  5
0
  8
Slice
 10
-23.0000390181491
 20
43.9911662705817
 30
0
 40
0.499999999999893
 50
90
 51
180
  0
ARC
  5
0
  8
Slice
 10
-26.7000390181489
 20
39.8911662705817
 30
0
 40
0.500000000000188
 50
0
 51
90
  0
ARC
  5
0
  8
Slice
 10
-11.1000390181489
 20
27.5911662705817
 30
0
 40
0.500000000000201
 50
0
 51
90
  0
ARC
  5
0
  8
Slice
 10
-10.0000390181488
 20
23.4911662705817
 30
0
 40
0.499999999999911
 50
90
 51
180
  0
ARC
  5
0
  8
Slice
 10
-30.8000390181488
 20
57.3911662705818
 30
0
 40
0.500000000000195
 50
180
 51
270
  0
ARC
  5
0
  8
Slice
 10
-24.1000390181488
 20
39.8911662705817
 30
0
 40
0.499999999999698
 50
0
 51
90
  0
ARC
  5
0
  8
Slice
 10
-12.6000390181489
 20
48.0911662705817
 30
0
 40
0.499999999999893
 50
90
 51
180
  0
ARC
  5
0
  8
Slice
 10
-20.400039018149
 20
45.0911662705816
 30
0
 40
0.500000000000199
 50
180
 51
270
  0
ARC
  5
0
  8
Slice
 10
-38.600039018149
 20
48.0911662705817
 30
0
 40
0.499999999999893
 50
90
 51
180
  0
ARC
  5
0
  8
Slice
 10
-18.9000390181489
 20
49.1911662705818
 30
0
 40
0.499999999999908
 50
-90
 51
0
  0
ARC
  5
0
  8
Slice
 10
-21.5000390181491
 20
76.7911662705819
 30
0
 40
0.500000000000199
 50
0
 51
90
  0
ARC
  5
0
  8
Slice
 10
-33.400039018149
 20
76.7911662705819
 30
0
 40
0.499999999999901
 50
90
 51
180
  0
ARC
  5
0
  8
Slice
 10
-26.7000390181489
 20
73.7911662705818
 30
0
 40
0.499999999999901
 50
-90
 51
0
  0
ARC
  5
0
  8
Slice
 10
-12.6000390181489
 20
27.5911662705817
 30
0
 40
0.499999999999901
 50
90
 51
180
  0
ARC
  5
0
  8
Slice
 10
-30.8000390181488
 20
69.6911662705816
 30
0
 40
0.500000000000195
 50
180
 51
270
  0
ARC
  5
0
  8
Slice
 10
-30.8000390181488
 20
73.7911662705818
 30
0
 40
0.500000000000195
 50
180
 51
270
  0
ARC
  5
0
  8
Slice
 10
-18.9000390181489
 20
35.7911662705817
 30
0
 40
0.499999999999698
 50
0
 51
90
  0
ARC
  5
0
  8
Slice
 10
-13.7000390181486
 20
35.7911662705817
 30
0
 40
0.4999999999997
 50
0
 51
90
  0
ARC
  5
0
  8
Slice
 10
-23.0000390181491
 20
68.5911662705819
 30
0
 40
0.499999999999943
 50
90
 51
180
  0
ARC
  5
0
  8
Slice
 10
-20.400039018149
 20
36.8911662705818
 30
0
 40
0.500000000000199
 50
180
 51
270
  0
ARC
  5
0
  8
Slice
 10
-11.1000390181489
 20
52.1911662705817
 30
0
 40
0.500000000000201
 50
0
 51
90
  0
ARC
  5
0
  8
Slice
 10
-20.400039018149
 20
40.9911662705818
 30
0
 40
0.500000000000199
 50
180
 51
270
  0
ARC
  5
0
  8
Slice
 10
-29.3000390181488
 20
69.6911662705816
 30
0
 40
0.499999999999957
 50
-90
 51
0
  0
ARC
  5
0
  8
Slice
 10
-36.0000390181488
 20
76.7911662705819
 30
0
 40
0.499999999999901
 50
90
 51
180
  0
ARC
  5
0
  8
Slice
 10
-15.2000390181486
 20
36.8911662705818
 30
0
 40
0.500000000000201
 50
180
 51
270
  0
ARC
  5
0
  8
Slice
 10
-28.200039018149
 20
40.9911662705818
 30
0
 40
0.499999999999702
 50
180
 51
270
  0
ARC
  5
0
  8
Slice
 10
-17.8000390181492
 20
39.8911662705817
 30
0
 40
0.500000000000206
 50
90
 51
180
  0
ARC
  5
0
  8
Slice
 10
-11.1000390181489
 20
53.2911662705816
 30
0
 40
0.499999999999893
 50
-90
 51
0
  0
ARC
  5
0
  8
Slice
 10
-16.3000390181492
 20
35.7911662705817
 30
0
 40
0.500000000000197
 50
0
 51
90
  0
ARC
  5
0
  8
Slice
 10
-10.0000390181488
 20
72.6911662705817
 30
0
 40
0.499999999999858
 50
90
 51
180
  0
ARC
  5
0
  8
Slice
 10
-15.2000390181486
 20
32.7911662705816
 30
0
 40
0.500000000000201
 50
180
 51
270
  0
ARC
  5
0
  8
Slice
 10
-10.0000390181488
 20
32.7911662705816
 30
0
 40
0.500000000000099
 50
180
 51
270
  0
ARC
  5
0
  8
Slice
 10
-13.7000390181486
 20
57.3911662705818
 30
0
 40
0.499999999999901
 50
-90
 51
0
  0
ARC
  5
0
  8
Slice
 10
-17.8000390181492
 20
68.5911662705819
 30
0
 40
0.499999999999943
 50
90
 51
180
  0
ARC
  5
0
  8
Slice
 10
-17.8000390181492
 20
69.6911662705816
 30
0
 40
0.499999999999712
 50
180
 51
270
  0
ARC
  5
0
  8
Slice
 10
-36.0000390181488
 20
56.2911662705817
 30
0
 40
0.499999999999929
 50
90
 51
180
  0
ARC
  5
0
  8
Slice
 10
-38.600039018149
 20
49.1911662705818
 30
0
 40
0.499999999999702
 50
180
 51
270
  0
ARC
  5
0
  8
Slice
 10
-11.1000390181489
 20
31.6911662705817
 30
0
 40
0.500000000000201
 50
0
 51
90
  0
ARC
  5
0
  8
Slice
 10
-24.1000390181488
 20
56.2911662705817
 30
0
 40
0.499999999999698
 50
0
 51
90
  0
ARC
  5
0
  8
Slice
 10
-10.0000390181488
 20
49.1911662705818
 30
0
 40
0.500000000000099
 50
180
 51
270
  0
ARC
  5
0
  8
Slice
 10
-10.0000390181488
 20
40.9911662705818
 30
0
 40
0.500000000000099
 50
180
 51
270
  0
ARC
  5
0
  8
Slice
 10
-34.5000390181488
 20
73.7911662705818
 30
0
 40
0.499999999999901
 50
-90
 51
0
  0
ARC
  5
0
  8
Slice
 10
-30.8000390181488
 20
49.1911662705818
 30
0
 40
0.500000000000195
 50
180
 51
270
  0
ARC
  5
0
  8
Slice
 10
-13.7000390181486
 20
45.0911662705816
 30
0
 40
0.499999999999908
 50
-90
 51
0
  0
ARC
  5
0
  8
Slice
 10
-16.3000390181492
 20
28.6911662705818
 30
0
 40
0.500000000000195
 50
-90
 51
0
  0
ARC
  5
0
  8
Slice
 10
-21.5000390181491
 20
36.8911662705818
 30
0
 40
0.499999999999929
 50
-90
 51
0
  0
ARC
  5
0
  8
Slice
 10
-17.8000390181492
 20
27.5911662705817
 30
0
 40
0.499999999999901
 50
90
 51
180
  0
ARC
  5
0
  8
Slice
 10
-10.0000390181488
 20
39.8911662705817
 30
0
 40
0.500000000000206
 50
90
 51
180
  0
ARC
  5
0
  8
Slice
 10
-33.400039018149
 20
48.0911662705817
 30
0
 40
0.499999999999893
 50
90
 51
180
  0
ARC
  5
0
  8
Slice
 10
-37.1000390181489
 20
76.7911662705819
 30
0
 40
0.500000000000199
 50
0
 51
90
  0
ARC
  5
0
  8
Slice
 10
-23.0000390181491
 20
53.2911662705816
 30
0
 40
0.499999999999698
 50
180
 51
270
  0
ARC
  5
0
  8
Slice
 10
-12.6000390181489
 20
43.9911662705817
 30
0
 40
0.499999999999893
 50
90
 51
180
  0
ARC
  5
0
  8
Slice
 10
-21.5000390181491
 20
35.7911662705817
 30
0
 40
0.500000000000199
 50
0
 51
90
  0
ARC
  5
0
  8
Slice
 10
-30.8000390181488
 20
61.4911662705816
 30
0
 40
0.500000000000195
 50
180
 51
270
  0
ARC
  5
0
  8
Slice
 10
-17.8000390181492
 20
28.6911662705818
 30
0
 40
0.499999999999712
 50
180
 51
270
  0
ARC
  5
0
  8
Slice
 10
-30.8000390181488
 20
53.2911662705816
 30
0
 40
0.500000000000195
 50
180
 51
270
  0
ARC
  5
0
  8
Slice
 10
-28.200039018149
 20
72.6911662705817
 30
0
 40
0.499999999999858
 50
90
 51
180
  0
ARC
  5
0
  8
Slice
 10
-10.0000390181488
 20
48.0911662705817
 30
0
 40
0.499999999999893
 50
90
 51
180
  0
ARC
  5
0
  8
Slice
 10
-38.600039018149
 20
52.1911662705817
 30
0
 40
0.500000000000206
 50
90
 51
180
  0
ARC
  5
0
  8
Slice
 10
-28.200039018149
 20
76.7911662705819
 30
0
 40
0.499999999999901
 50
90
 51
180
  0
ARC
  5
0
  8
Slice
 10
-34.5000390181488
 20
76.7911662705819
 30
0
 40
0.499999999999694
 50
0
 51
90
  0
ARC
  5
0
  8
Slice
 10
-12.6000390181489
 20
61.4911662705816
 30
0
 40
0.500000000000199
 50
180
 51
270
  0
ARC
  5
0
  8
Slice
 10
-18.9000390181489
 20
68.5911662705819
 30
0
 40
0.499999999999698
 50
0
 51
90
  0
ARC
  5
0
  8
Slice
 10
-36.0000390181488
 20
53.2911662705816
 30
0
 40
0.500000000000206
 50
180
 51
270
  0
ARC
  5
0
  8
Slice
 10
-10.0000390181488
 20
28.6911662705818
 30
0
 40
0.500000000000099
 50
180
 51
270
  0
ARC
  5
0
  8
Slice
 10
-37.1000390181489
 20
52.1911662705817
 30
0
 40
0.500000000000199
 50
0
 51
90
  0
ARC
  5
0
  8
Slice
 10
-10.0000390181488
 20
73.7911662705818
 30
0
 40
0.500000000000099
 50
180
 51
270
  0
ARC
  5
0
  8
Slice
 10
-30.8000390181488
 20
76.7911662705819
 30
0
 40
0.499999999999901
 50
90
 51
180
  0
ARC
  5
0
  8
Slice
 10
-12.6000390181489
 20
49.1911662705818
 30
0
 40
0.500000000000199
 50
180
 51
270
  0
ARC
  5
0
  8
Slice
 10
-25.6000390181488
 20
61.4911662705816
 30
0
 40
0.500000000000203
 50
180
 51
270
  0
ARC
  5
0
  8
Slice
 10
-11.1000390181489
 20
68.5911662705819
 30
0
 40
0.500000000000201
 50
0
 51
90
  0
ARC
  5
0
  8
Slice
 10
-10.0000390181488
 20
35.7911662705817
 30
0
 40
0.499999999999872
 50
90
 51
180
  0
ARC
  5
0
  8
Slice
 10
-10.0000390181488
 20
36.8911662705818
 30
0
 40
0.500000000000099
 50
180
 51
270
  0
ARC
  5
0
  8
Slice
 10
-8.50003901814916
 20
45.0911662705816
 30
0
 40
0.499999999999908
 50
-90
 51
0
  0
ARC
  5
0
  8
Slice
 10
-30.8000390181488
 20
72.6911662705817
 30
0
 40
0.499999999999858
 50
90
 51
180
  0
ARC
  5
0
  8
Slice
 10
-13.7000390181486
 20
43.9911662705817
 30
0
 40
0.4999999999997
 50
0
 51
90
  0
ARC
  5
0
  8
Slice
 10
-17.8000390181492
 20
76.7911662705819
 30
0
 40
0.499999999999901
 50
90
 51
180
  0
ARC
  5
0
  8
Slice
 10
-37.1000390181489
 20
49.1911662705818
 30
0
 40
0.499999999999908
 50
-90
 51
0
  0
ARC
  5
0
  8
Slice
 10
-26.7000390181489
 20
43.9911662705817
 30
0
 40
0.500000000000188
 50
0
 51
90
  0
ARC
  5
0
  8
Slice
 10
-23.0000390181491
 20
52.1911662705817
 30
0
 40
0.500000000000206
 50
90
 51
180
  0
ARC
  5
0
  8
Slice
 10
-25.6000390181488
 20
36.8911662705818
 30
0
 40
0.500000000000203
 50
180
 51
270
  0
ARC
  5
0
  8
Slice
 10
-36.0000390181488
 20
52.1911662705817
 30
0
 40
0.500000000000206
 50
90
 51
180
  0
ARC
  5
0
  8
Slice
 10
-15.2000390181486
 20
43.9911662705817
 30
0
 40
0.499999999999893
 50
90
 51
180
  0
ARC
  5
0
  8
Slice
 10
-18.9000390181489
 20
32.7911662705816
 30
0
 40
0.499999999999929
 50
-90
 51
0
  0
ARC
  5
0
  8
Slice
 10
-21.5000390181491
 20
39.8911662705817
 30
0
 40
0.500000000000199
 50
0
 51
90
  0
ARC
  5
0
  8
Slice
 10
-18.9000390181489
 20
36.8911662705818
 30
0
 40
0.499999999999929
 50
-90
 51
0
  0
ARC
  5
0
  8
Slice
 10
-28.200039018149
 20
39.8911662705817
 30
0
 40
0.500000000000206
 50
90
 51
180
  0
ARC
  5
0
  8
Slice
 10
-17.8000390181492
 20
65.5911662705818
 30
0
 40
0.499999999999712
 50
180
 51
270
  0
ARC
  5
0
  8
Slice
 10
-20.400039018149
 20
69.6911662705816
 30
0
 40
0.500000000000199
 50
180
 51
270
  0
ARC
  5
0
  8
Slice
 10
-8.50003901814916
 20
39.8911662705817
 30
0
 40
0.500000000000171
 50
0
 51
90
  0
ARC
  5
0
  8
Slice
 10
-38.600039018149
 20
64.4911662705817
 30
0
 40
0.499999999999901
 50
90
 51
180
  0
ARC
  5
0
  8
Slice
 10
-20.400039018149
 20
61.4911662705816
 30
0
 40
0.500000000000199
 50
180
 51
270
  0
ARC
  5
0
  8
Slice
 10
-33.400039018149
 20
73.7911662705818
 30
0
 40
0.499999999999694
 50
180
 51
270
  0
ARC
  5
0
  8
Slice
 10
-17.8000390181492
 20
60.3911662705819
 30
0
 40
0.5
 50
90
 51
180
  0
ARC
  5
0
  8
Slice
 10
-13.7000390181486
 20
24.5911662705816
 30
0
 40
0.499999999999901
 50
-90
 51
0
  0
ARC
  5
0
  8
Slice
 10
-8.50003901814916
 20
64.4911662705817
 30
0
 40
0.500000000000171
 50
0
 51
90
  0
ARC
  5
0
  8
Slice
 10
-28.200039018149
 20
64.4911662705817
 30
0
 40
0.499999999999901
 50
90
 51
180
  0
ARC
  5
0
  8
Slice
 10
-36.0000390181488
 20
57.3911662705818
 30
0
 40
0.500000000000206
 50
180
 51
270
  0
ARC
  5
0
  8
Slice
 10
-13.7000390181486
 20
61.4911662705816
 30
0
 40
0.499999999999922
 50
-90
 51
0
  0
ARC
  5
0
  8
Slice
 10
-37.1000390181489
 20
45.0911662705816
 30
0
 40
0.499999999999908
 50
-90
 51
0
  0
ARC
  5
0
  8
Slice
 10
-16.3000390181492
 20
60.3911662705819
 30
0
 40
0.500000000000197
 50
0
 51
90
  0
ARC
  5
0
  8
Slice
 10
-15.2000390181486
 20
48.0911662705817
 30
0
 40
0.499999999999893
 50
90
 51
180
  0
ARC
  5
0
  8
Slice
 10
-8.50003901814916
 20
49.1911662705818
 30
0
 40
0.499999999999908
 50
-90
 51
0
  0
ARC
  5
0
  8
Slice
 10
-17.8000390181492
 20
73.7911662705818
 30
0
 40
0.499999999999712
 50
180
 51
270
  0
ARC
  5
0
  8
Slice
 10
-10.0000390181488
 20
69.6911662705816
 30
0
 40
0.500000000000099
 50
180
 51
270
  0
ARC
  5
0
  8
Slice
 10
-37.1000390181489
 20
69.6911662705816
 30
0
 40
0.499999999999957
 50
-90
 51
0
  0
ARC
  5
0
  8
Slice
 10
-15.2000390181486
 20
69.6911662705816
 30
0
 40
0.500000000000201
 50
180
 51
270
  0
ARC
  5
0
  8
Slice
 10
-36.0000390181488
 20
64.4911662705817
 30
0
 40
0.499999999999901
 50
90
 51
180
  0
ARC
  5
0
  8
Slice
 10
-11.1000390181489
 20
35.7911662705817
 30
0
 40
0.500000000000201
 50
0
 51
90
  0
ARC
  5
0
  8
Slice
 10
-23.0000390181491
 20
76.7911662705819
 30
0
 40
0.499999999999901
 50
90
 51
180
  0
ARC
  5
0
  8
Slice
 10
-24.1000390181488
 20
49.1911662705818
 30
0
 40
0.499999999999908
 50
-90
 51
0
  0
ARC
  5
0
  8
Slice
 10
-21.5000390181491
 20
69.6911662705816
 30
0
 40
0.499999999999957
 50
-90
 51
0
  0
ARC
  5
0
  8
Slice
 10
-26.7000390181489
 20
64.4911662705817
 30
0
 40
0.500000000000188
 50
0
 51
90
  0
ARC
  5
0
  8
Slice
 10
-8.50003901814916
 20
27.5911662705817
 30
0
 40
0.500000000000171
 50
0
 51
90
  0
ARC
  5
0
  8
Slice
 10
-21.5000390181491
 20
57.3911662705818
 30
0
 40
0.499999999999901
 50
-90
 51
0
  0
ARC
  5
0
  8
Slice
 10
-33.400039018149
 20
45.0911662705816
 30
0
 40
0.499999999999694
 50
180
 51
270
  0
ARC
  5
0
  8
Slice
 10
-8.50003901814916
 20
73.7911662705818
 30
0
 40
0.499999999999901
 50
-90
 51
0
  0
ARC
  5
0
  8
Slice
 10
-28.200039018149
 20
36.8911662705818
 30
0
 40
0.499999999999702
 50
180
 51
270
  0
ARC
  5
0
  8
Slice
 10
-18.9000390181489
 20
76.7911662705819
 30
0
 40
0.499999999999698
 50
0
 51
90
  0
ARC
  5
0
  8
Slice
 10
-17.8000390181492
 20
24.5911662705816
 30
0
 40
0.499999999999712
 50
180
 51
270
  0
ARC
  5
0
  8
Slice
 10
-18.9000390181489
 20
60.3911662705819
 30
0
 40
0.499999999999698
 50
0
 51
90
  0
ARC
  5
0
  8
Slice
 10
-30.8000390181488
 20
65.5911662705818
 30
0
 40
0.500000000000195
 50
180
 51
270
  0
ARC
  5
0
  8
Slice
 10
-34.5000390181488
 20
52.1911662705817
 30
0
 40
0.499999999999694
 50
0
 51
90
  0
ARC
  5
0
  8
Slice
 10
-25.6000390181488
 20
64.4911662705817
 30
0
 40
0.499999999999901
 50
90
 51
180
  0
ARC
  5
0
  8
Slice
 10
-33.400039018149
 20
56.2911662705817
 30
0
 40
0.499999999999929
 50
90
 51
180
  0
ARC
  5
0
  8
Slice
 10
-33.400039018149
 20
65.5911662705818
 30
0
 40
0.499999999999694
 50
180
 51
270
  0
ARC
  5
0
  8
Slice
 10
-8.50003901814916
 20
76.7911662705819
 30
0
 40
0.500000000000171
 50
0
 51
90
  0
ARC
  5
0
  8
Slice
 10
-26.7000390181489
 20
56.2911662705817
 30
0
 40
0.500000000000188
 50
0
 51
90
  0
ARC
  5
0
  8
Slice
 10
-29.3000390181488
 20
43.9911662705817
 30
0
 40
0.499999999999698
 50
0
 51
90
  0
ARC
  5
0
  8
Slice
 10
-11.1000390181489
 20
61.4911662705816
 30
0
 40
0.499999999999922
 50
-90
 51
0
  0
ARC
  5
0
  8
Slice
 10
-28.200039018149
 20
45.0911662705816
 30
0
 40
0.499999999999702
 50
180
 51
270
  0
ARC
  5
0
  8
Slice
 10
-20.400039018149
 20
35.7911662705817
 30
0
 40
0.499999999999872
 50
90
 51
180
  0
ARC
  5
0
  8
Slice
 10
-17.8000390181492
 20
43.9911662705817
 30
0
 40
0.499999999999893
 50
90
 51
180
  0
ARC
  5
0
  8
Slice
 10
-29.3000390181488
 20
61.4911662705816
 30
0
 40
0.499999999999922
 50
-90
 51
0
  0
ARC
  5
0
  8
Slice
 10
-20.400039018149
 20
65.5911662705818
 30
0
 40
0.500000000000199
 50
180
 51
270
  0
ARC
  5
0
  8
Slice
 10
-15.2000390181486
 20
39.8911662705817
 30
0
 40
0.500000000000206
 50
90
 51
180
  0
ARC
  5
0
  8
Slice
 10
-15.2000390181486
 20
27.5911662705817
 30
0
 40
0.499999999999901
 50
90
 51
180
  0
ARC
  5
0
  8
Slice
 10
-16.3000390181492
 20
57.3911662705818
 30
0
 40
0.499999999999901
 50
-90
 51
0
  0
ARC
  5
0
  8
Slice
 10
-21.5000390181491
 20
56.2911662705817
 30
0
 40
0.500000000000199
 50
0
 51
90
  0
ARC
  5
0
  8
Slice
 10
-16.3000390181492
 20
45.0911662705816
 30
0
 40
0.499999999999908
 50
-90
 51
0
  0
ARC
  5
0
  8
Slice
 10
-25.6000390181488
 20
48.0911662705817
 30
0
 40
0.499999999999893
 50
90
 51
180
  0
ARC
  5
0
  8
Slice
 10
-28.200039018149
 20
52.1911662705817
 30
0
 40
0.500000000000206
 50
90
 51
180
  0
ARC
  5
0
  8
Slice
 10
-37.1000390181489
 20
68.5911662705819
 30
0
 40
0.500000000000199
 50
0
 51
90
  0
ARC
  5
0
  8
Slice
 10
-11.1000390181489
 20
40.9911662705818
 30
0
 40
0.500000000000199
 50
-90
 51
0
  0
ARC
  5
0
  8
Slice
 10
-10.0000390181488
 20
68.5911662705819
 30
0
 40
0.499999999999943
 50
90
 51
180
  0
ARC
  5
0
  8
Slice
 10
-38.600039018149
 20
72.6911662705817
 30
0
 40
0.499999999999858
 50
90
 51
180
  0
ARC
  5
0
  8
Slice
 10
-37.1000390181489
 20
57.3911662705818
 30
0
 40
0.499999999999901
 50
-90
 51
0
  0
ARC
  5
0
  8
Slice
 10
-8.50003901814916
 20
72.6911662705817
 30
0
 40
0.500000000000171
 50
0
 51
90
  0
ARC
  5
0
  8
Slice
 10
-13.7000390181486
 20
64.4911662705817
 30
0
 40
0.4999999999997
 50
0
 51
90
  0
ARC
  5
0
  8
Slice
 10
-16.3000390181492
 20
32.7911662705816
 30
0
 40
0.499999999999929
 50
-90
 51
0
  0
ARC
  5
0
  8
Slice
 10
-26.7000390181489
 20
65.5911662705818
 30
0
 40
0.499999999999901
 50
-90
 51
0
  0
ARC
  5
0
  8
Slice
 10
-37.1000390181489
 20
56.2911662705817
 30
0
 40
0.500000000000199
 50
0
 51
90
  0
ARC
  5
0
  8
Slice
 10
-15.2000390181486
 20
49.1911662705818
 30
0
 40
0.500000000000201
 50
180
 51
270
  0
ARC
  5
0
  8
Slice
 10
-12.6000390181489
 20
23.4911662705817
 30
0
 40
0.499999999999911
 50
90
 51
180
  0
ARC
  5
0
  8
Slice
 10
-24.1000390181488
 20
43.9911662705817
 30
0
 40
0.499999999999698
 50
0
 51
90
  0
ARC
  5
0
  8
Slice
 10
-21.5000390181491
 20
64.4911662705817
 30
0
 40
0.500000000000199
 50
0
 51
90
  0
ARC
  5
0
  8
Slice
 10
-31.9000390181489
 20
60.3911662705819
 30
0
 40
0.500000000000195
 50
0
 51
90
  0
ARC
  5
0
  8
Slice
 10
-23.0000390181491
 20
32.7911662705816
 30
0
 40
0.499999999999698
 50
180
 51
270
  0
ARC
  5
0
  8
Slice
 10
-34.5000390181488
 20
64.4911662705817
 30
0
 40
0.499999999999694
 50
0
 51
90
  0
ARC
  5
0
  8
Slice
 10
-20.400039018149
 20
57.3911662705818
 30
0
 40
0.500000000000199
 50
180
 51
270
  0
ARC
  5
0
  8
Slice
 10
-34.5000390181488
 20
53.2911662705816
 30
0
 40
0.499999999999893
 50
-90
 51
0
  0
ARC
  5
0
  8
Slice
 10
-8.50003901814916
 20
24.5911662705816
 30
0
 40
0.499999999999901
 50
-90
 51
0
  0
ARC
  5
0
  8
Slice
 10
-25.6000390181488
 20
68.5911662705819
 30
0
 40
0.499999999999943
 50
90
 51
180
  0
ARC
  5
0
  8
Slice
 10
-31.9000390181489
 20
68.5911662705819
 30
0
 40
0.500000000000195
 50
0
 51
90
  0
ARC
  5
0
  8
Slice
 10
-15.2000390181486
 20
60.3911662705819
 30
0
 40
0.5
 50
90
 51
180
  0
ARC
  5
0
  8
Slice
 10
-25.6000390181488
 20
60.3911662705819
 30
0
 40
0.5
 50
90
 51
180
  0
ARC
  5
0
  8
Slice
 10
-17.8000390181492
 20
31.6911662705817
 30
0
 40
0.499999999999872
 50
90
 51
180
  0
ARC
  5
0
  8
Slice
 10
-26.7000390181489
 20
52.1911662705817
 30
0
 40
0.500000000000188
 50
0
 51
90
  0
ARC
  5
0
  8
Slice
 10
-30.8000390181488
 20
60.3911662705819
 30
0
 40
0.5
 50
90
 51
180
  0
ARC
  5
0
  8
Slice
 10
-23.0000390181491
 20
35.7911662705817
 30
0
 40
0.499999999999872
 50
90
 51
180
  0
ARC
  5
0
  8
Slice
 10
-26.7000390181489
 20
53.2911662705816
 30
0
 40
0.499999999999893
 50
-90
 51
0
  0
ARC
  5
0
  8
Slice
 10
-12.6000390181489
 20
76.7911662705819
 30
0
 40
0.499999999999901
 50
90
 51
180
  0
ARC
  5
0
  8
Slice
 10
-31.9000390181489
 20
57.3911662705818
 30
0
 40
0.499999999999901
 50
-90
 51
0
  0
ARC
  5
0
  8
Slice
 10
-17.8000390181492
 20
40.9911662705818
 30
0
 40
0.499999999999712
 50
180
 51
270
  0
ARC
  5
0
  8
Slice
 10
-15.2000390181486
 20
35.7911662705817
 30
0
 40
0.499999999999872
 50
90
 51
180
  0
ARC
  5
0
  8
Slice
 10
-31.9000390181489
 20
56.2911662705817
 30
0
 40
0.500000000000195
 50
0
 51
90
  0
ARC
  5
0
  8
Slice
 10
-21.5000390181491
 20
52.1911662705817
 30
0
 40
0.500000000000199
 50
0
 51
90
  0
ARC
  5
0
  8
Slice
 10
-10.0000390181488
 20
65.5911662705818
 30
0
 40
0.500000000000099
 50
180
 51
270
  0
ARC
  5
0
  8
Slice
 10
-37.1000390181489
 20
61.4911662705816
 30
0
 40
0.499999999999922
 50
-90
 51
0
  0
ARC
  5
0
  8
Slice
 10
-21.5000390181491
 20
73.7911662705818
 30
0
 40
0.499999999999901
 50
-90
 51
0
  0
ARC
  5
0
  8
Slice
 10
-13.7000390181486
 20
28.6911662705818
 30
0
 40
0.500000000000195
 50
-90
 51
0
  0
ARC
  5
0
  8
Slice
 10
-25.6000390181488
 20
72.6911662705817
 30
0
 40
0.499999999999858
 50
90
 51
180
  0
ARC
  5
0
  8
Slice
 10
-16.3000390181492
 20
24.5911662705816
 30
0
 40
0.499999999999901
 50
-90
 51
0
  0
ARC
  5
0
  8
Slice
 10
-18.9000390181489
 20
61.4911662705816
 30
0
 40
0.499999999999922
 50
-90
 51
0
  0
ARC
  5
0
  8
Slice
 10
-31.9000390181489
 20
72.6911662705817
 30
0
 40
0.500000000000195
 50
0
 51
90
  0
ARC
  5
0
  8
Slice
 10
-23.0000390181491
 20
61.4911662705816
 30
0
 40
0.499999999999698
 50
180
 51
270
  0
ARC
  5
0
  8
Slice
 10
-28.200039018149
 20
49.1911662705818
 30
0
 40
0.499999999999702
 50
180
 51
270
  0
ARC
  5
0
  8
Slice
 10
-28.200039018149
 20
73.7911662705818
 30
0
 40
0.499999999999702
 50
180
 51
270
  0
ARC
  5
0
  8
Slice
 10
-15.2000390181486
 20
76.7911662705819
 30
0
 40
0.499999999999901
 50
90
 51
180
  0
ARC
  5
0
  8
Slice
 10
-8.50003901814916
 20
20.4911662705816
 30
0
 40
0.499999999999901
 50
-90
 51
0
  0
ARC
  5
0
  8
Slice
 10
-8.50003901814916
 20
35.7911662705817
 30
0
 40
0.500000000000171
 50
0
 51
90
  0
ARC
  5
0
  8
Slice
 10
-8.50003901814916
 20
60.3911662705819
 30
0
 40
0.500000000000171
 50
0
 51
90
  0
ARC
  5
0
  8
Slice
 10
-13.7000390181486
 20
32.7911662705816
 30
0
 40
0.499999999999929
 50
-90
 51
0
  0
ARC
  5
0
  8
Slice
 10
-29.3000390181488
 20
72.6911662705817
 30
0
 40
0.499999999999698
 50
0
 51
90
  0
ARC
  5
0
  8
Slice
 10
-33.400039018149
 20
57.3911662705818
 30
0
 40
0.499999999999694
 50
180
 51
270
  0
ARC
  5
0
  8
Slice
 10
-12.6000390181489
 20
57.3911662705818
 30
0
 40
0.500000000000199
 50
180
 51
270
  0
ARC
  5
0
  8
Slice
 10
-37.1000390181489
 20
64.4911662705817
 30
0
 40
0.500000000000199
 50
0
 51
90
  0
ARC
  5
0
  8
Slice
 10
-23.0000390181491
 20
48.0911662705817
 30
0
 40
0.499999999999893
 50
90
 51
180
  0
ARC
  5
0
  8
Slice
 10
-16.3000390181492
 20
27.5911662705817
 30
0
 40
0.500000000000197
 50
0
 51
90
  0
ARC
  5
0
  8
Slice
 10
-30.8000390181488
 20
64.4911662705817
 30
0
 40
0.499999999999901
 50
90
 51
180
  0
ARC
  5
0
  8
Slice
 10
-17.8000390181492
 20
48.0911662705817
 30
0
 40
0.499999999999893
 50
90
 51
180
  0
ARC
  5
0
  8
Slice
 10
-15.2000390181486
 20
40.9911662705818
 30
0
 40
0.500000000000201
 50
180
 51
270
  0
ARC
  5
0
  8
Slice
 10
-12.6000390181489
 20
31.6911662705817
 30
0
 40
0.499999999999872
 50
90
 51
180
  0
ARC
  5
0
  8
Slice
 10
-17.8000390181492
 20
36.8911662705818
 30
0
 40
0.499999999999712
 50
180
 51
270
  0
ARC
  5
0
  8
Slice
 10
-26.7000390181489
 20
40.9911662705818
 30
0
 40
0.500000000000199
 50
-90
 51
0
  0
ARC
  5
0
  8
Slice
 10
-33.400039018149
 20
60.3911662705819
 30
0
 40
0.5
 50
90
 51
180
  0
ARC
  5
0
  8
Slice
 10
-11.1000390181489
 20
23.4911662705817
 30
0
 40
0.500000000000201
 50
0
 51
90
  0
ARC
  5
0
  8
Slice
 10
-15.2000390181486
 20
53.2911662705816
 30
0
 40
0.500000000000201
 50
180
 51
270
  0
ARC
  5
0
  8
Slice
 10
-20.400039018149
 20
64.4911662705817
 30
0
 40
0.499999999999901
 50
90
 51
180
  0
ARC
  5
0
  8
Slice
 10
-36.0000390181488
 20
60.3911662705819
 30
0
 40
0.5
 50
90
 51
180
  0
ARC
  5
0
  8
Slice
 10
-21.5000390181491
 20
48.0911662705817
 30
0
 40
0.500000000000199
 50
0
 51
90
  0
ARC
  5
0
  8
Slice
 10
-28.200039018149
 20
60.3911662705819
 30
0
 40
0.5
 50
90
 51
180
  0
ARC
  5
0
  8
Slice
 10
-23.0000390181491
 20
36.8911662705818
 30
0
 40
0.499999999999698
 50
180
 51
270
  0
ARC
  5
0
  8
Slice
 10
-29.3000390181488
 20
56.2911662705817
 30
0
 40
0.499999999999698
 50
0
 51
90
  0
ARC
  5
0
  8
Slice
 10
-21.5000390181491
 20
40.9911662705818
 30
0
 40
0.500000000000199
 50
-90
 51
0
  0
ARC
  5
0
  8
Slice
 10
-17.8000390181492
 20
56.2911662705817
 30
0
 40
0.499999999999929
 50
90
 51
180
  0
ARC
  5
0
  8
Slice
 10
-36.0000390181488
 20
73.7911662705818
 30
0
 40
0.500000000000206
 50
180
 51
270
  0
ARC
  5
0
  8
Slice
 10
-25.6000390181488
 20
52.1911662705817
 30
0
 40
0.500000000000206
 50
90
 51
180
  0
ARC
  5
0
  8
Slice
 10
-18.9000390181489
 20
39.8911662705817
 30
0
 40
0.499999999999698
 50
0
 51
90
  0
ARC
  5
0
  8
Slice
 10
-21.5000390181491
 20
65.5911662705818
 30
0
 40
0.499999999999901
 50
-90
 51
0
  0
ARC
  5
0
  8
Slice
 10
-25.6000390181488
 20
69.6911662705816
 30
0
 40
0.500000000000203
 50
180
 51
270
  0
ARC
  5
0
  8
Slice
 10
-26.7000390181489
 20
36.8911662705818
 30
0
 40
0.499999999999929
 50
-90
 51
0
  0
ARC
  5
0
  8
Slice
 10
-10.0000390181488
 20
52.1911662705817
 30
0
 40
0.500000000000206
 50
90
 51
180
  0
ARC
  5
0
  8
Slice
 10
-37.1000390181489
 20
48.0911662705817
 30
0
 40
0.500000000000199
 50
0
 51
90
  0
ARC
  5
0
  8
Slice
 10
-8.50003901814916
 20
53.2911662705816
 30
0
 40
0.499999999999893
 50
-90
 51
0
  0
ARC
  5
0
  8
Slice
 10
-34.5000390181488
 20
48.0911662705817
 30
0
 40
0.499999999999694
 50
0
 51
90
  0
ARC
  5
0
  8
Slice
 10
-15.2000390181486
 20
31.6911662705817
 30
0
 40
0.499999999999872
 50
90
 51
180
  0
ARC
  5
0
  8
Slice
 10
-26.7000390181489
 20
68.5911662705819
 30
0
 40
0.500000000000188
 50
0
 51
90
  0
ARC
  5
0
  8
Slice
 10
-23.0000390181491
 20
73.7911662705818
 30
0
 40
0.499999999999698
 50
180
 51
270
  0
ARC
  5
0
  8
Slice
 10
-34.5000390181488
 20
56.2911662705817
 30
0
 40
0.499999999999694
 50
0
 51
90
  0
ARC
  5
0
  8
Slice
 10
-16.3000390181492
 20
39.8911662705817
 30
0
 40
0.500000000000197
 50
0
 51
90
  0
ARC
  5
0
  8
Slice
 10
-8.50003901814916
 20
69.6911662705816
 30
0
 40
0.499999999999957
 50
-90
 51
0
  0
ARC
  5
0
  8
Slice
 10
-38.600039018149
 20
56.2911662705817
 30
0
 40
0.499999999999929
 50
90
 51
180
  0
ARC
  5
0
  8
Slice
 10
-18.9000390181489
 20
65.5911662705818
 30
0
 40
0.499999999999901
 50
-90
 51
0
  0
ARC
  5
0
  8
Slice
 10
-16.3000390181492
 20
69.6911662705816
 30
0
 40
0.499999999999957
 50
-90
 51
0
  0
ARC
  5
0
  8
Slice
 10
-10.0000390181488
 20
27.5911662705817
 30
0
 40
0.499999999999901
 50
90
 51
180
  0
ARC
  5
0
  8
Slice
 10
-38.600039018149
 20
45.0911662705816
 30
0
 40
0.499999999999702
 50
180
 51
270
  0
ARC
  5
0
  8
Slice
 10
-18.9000390181489
 20
45.0911662705816
 30
0
 40
0.499999999999908
 50
-90
 51
0
  0
ARC
  5
0
  8
Slice
 10
-8.50003901814916
 20
43.9911662705817
 30
0
 40
0.500000000000171
 50
0
 51
90
  0
ARC
  5
0
  8
Slice
 10
-21.5000390181491
 20
45.0911662705816
 30
0
 40
0.499999999999908
 50
-90
 51
0
  0
ARC
  5
0
  8
Slice
 10
-13.7000390181486
 20
73.7911662705818
 30
0
 40
0.499999999999901
 50
-90
 51
0
  0
ARC
  5
0
  8
Slice
 10
-18.9000390181489
 20
40.9911662705818
 30
0
 40
0.500000000000199
 50
-90
 51
0
  0
ARC
  5
0
  8
Slice
 10
-18.9000390181489
 20
69.6911662705816
 30
0
 40
0.499999999999957
 50
-90
 51
0
  0
ARC
  5
0
  8
Slice
 10
-28.200039018149
 20
69.6911662705816
 30
0
 40
0.499999999999702
 50
180
 51
270
  0
ARC
  5
0
  8
Slice
 10
-34.5000390181488
 20
49.1911662705818
 30
0
 40
0.499999999999908
 50
-90
 51
0
  0
ARC
  5
0
  8
Slice
 10
-38.600039018149
 20
53.2911662705816
 30
0
 40
0.499999999999702
 50
180
 51
270
  0
ARC
  5
0
  8
Slice
 10
-29.3000390181488
 20
60.3911662705819
 30
0
 40
0.499999999999698
 50
0
 51
90
  0
ARC
  5
0
  8
Slice
 10
-30.8000390181488
 20
45.0911662705816
 30
0
 40
0.500000000000195
 50
180
 51
270
  0
ARC
  5
0
  8
Slice
 10
-36.0000390181488
 20
49.1911662705818
 30
0
 40
0.500000000000206
 50
180
 51
270
  0
ARC
  5
0
  8
Slice
 10
-26.7000390181489
 20
72.6911662705817
 30
0
 40
0.500000000000188
 50
0
 51
90
  0
ARC
  5
0
  8
Slice
 10
-36.0000390181488
 20
72.6911662705817
 30
0
 40
0.499999999999858
 50
90
 51
180
  0
ARC
  5
0
  8
Slice
 10
-36.0000390181488
 20
48.0911662705817
 30
0
 40
0.499999999999893
 50
90
 51
180
  0
ARC
  5
0
  8
Slice
 10
-24.1000390181488
 20
72.6911662705817
 30
0
 40
0.499999999999698
 50
0
 51
90
  0
ARC
  5
0
  8
Slice
 10
-31.9000390181489
 20
69.6911662705816
 30
0
 40
0.499999999999957
 50
-90
 51
0
  0
ARC
  5
0
  8
Slice
 10
-36.0000390181488
 20
65.5911662705818
 30
0
 40
0.500000000000206
 50
180
 51
270
  0
ARC
  5
0
  8
Slice
 10
-16.3000390181492
 20
56.2911662705817
 30
0
 40
0.500000000000197
 50
0
 51
90
  0
ARC
  5
0
  8
Slice
 10
-17.8000390181492
 20
64.4911662705817
 30
0
 40
0.499999999999901
 50
90
 51
180
  0
ARC
  5
0
  8
Slice
 10
-20.400039018149
 20
53.2911662705816
 30
0
 40
0.500000000000199
 50
180
 51
270
  0
ARC
  5
0
  8
Slice
 10
-24.1000390181488
 20
52.1911662705817
 30
0
 40
0.499999999999698
 50
0
 51
90
  0
ARC
  5
0
  8
Slice
 10
-20.400039018149
 20
76.7911662705819
 30
0
 40
0.499999999999901
 50
90
 51
180
  0
ARC
  5
0
  8
Slice
 10
-33.400039018149
 20
64.4911662705817
 30
0
 40
0.499999999999901
 50
90
 51
180
  0
ARC
  5
0
  8
Slice
 10
-33.400039018149
 20
72.6911662705817
 30
0
 40
0.499999999999858
 50
90
 51
180
  0
ARC
  5
0
  8
Slice
 10
-16.3000390181492
 20
64.4911662705817
 30
0
 40
0.500000000000197
 50
0
 51
90
  0
ARC
  5
0
  8
Slice
 10
-31.9000390181489
 20
52.1911662705817
 30
0
 40
0.500000000000195
 50
0
 51
90
  0
ARC
  5
0
  8
Slice
 10
-28.200039018149
 20
57.3911662705818
 30
0
 40
0.499999999999702
 50
180
 51
270
  0
ARC
  5
0
  8
Slice
 10
-38.600039018149
 20
60.3911662705819
 30
0
 40
0.5
 50
90
 51
180
  0
ARC
  5
0
  8
Slice
 10
-30.8000390181488
 20
40.9911662705818
 30
0
 40
0.500000000000195
 50
180
 51
270
  0
ARC
  5
0
  8
Slice
 10
-15.2000390181486
 20
65.5911662705818
 30
0
 40
0.500000000000201
 50
180
 51
270
  0
ARC
  5
0
  8
Slice
 10
-31.9000390181489
 20
49.1911662705818
 30
0
 40
0.499999999999908
 50
-90
 51
0
  0
ARC
  5
0
  8
Slice
 10
-8.50003901814916
 20
31.6911662705817
 30
0
 40
0.500000000000171
 50
0
 51
90
  0
ARC
  5
0
  8
Slice
 10
-31.9000390181489
 20
64.4911662705817
 30
0
 40
0.500000000000195
 50
0
 51
90
  0
ARC
  5
0
  8
Slice
 10
-25.6000390181488
 20
39.8911662705817
 30
0
 40
0.500000000000206
 50
90
 51
180
  0
ARC
  5
0
  8
Slice
 10
-34.5000390181488
 20
60.3911662705819
 30
0
 40
0.499999999999694
 50
0
 51
90
  0
ARC
  5
0
  8
Slice
 10
-16.3000390181492
 20
49.1911662705818
 30
0
 40
0.499999999999908
 50
-90
 51
0
  0
ARC
  5
0
  8
Slice
 10
-26.7000390181489
 20
45.0911662705816
 30
0
 40
0.499999999999908
 50
-90
 51
0
  0
ARC
  5
0
  8
Slice
 10
-21.5000390181491
 20
68.5911662705819
 30
0
 40
0.500000000000199
 50
0
 51
90
  0
ARC
  5
0
  8
Slice
 10
-23.0000390181491
 20
39.8911662705817
 30
0
 40
0.500000000000206
 50
90
 51
180
  0
ARC
  5
0
  8
Slice
 10
-20.400039018149
 20
73.7911662705818
 30
0
 40
0.500000000000199
 50
180
 51
270
  0
ARC
  5
0
  8
Slice
 10
-28.200039018149
 20
56.2911662705817
 30
0
 40
0.499999999999929
 50
90
 51
180
  0
ARC
  5
0
  8
Slice
 10
-11.1000390181489
 20
43.9911662705817
 30
0
 40
0.500000000000201
 50
0
 51
90
  0
ARC
  5
0
  8
Slice
 10
-11.1000390181489
 20
24.5911662705816
 30
0
 40
0.499999999999901
 50
-90
 51
0
  0
ARC
  5
0
  8
Slice
 10
-10.0000390181488
 20
45.0911662705816
 30
0
 40
0.500000000000099
 50
180
 51
270
  0
ARC
  5
0
  8
Slice
 10
-25.6000390181488
 20
76.7911662705819
 30
0
 40
0.499999999999901
 50
90
 51
180
  0
ARC
  5
0
  8
Slice
 10
-12.6000390181489
 20
69.6911662705816
 30
0
 40
0.500000000000199
 50
180
 51
270
  0
ARC
  5
0
  8
Slice
 10
-15.2000390181486
 20
64.4911662705817
 30
0
 40
0.499999999999901
 50
90
 51
180
  0
ARC
  5
0
  8
Slice
 10
-8.50003901814916
 20
56.2911662705817
 30
0
 40
0.500000000000171
 50
0
 51
90
  0
ARC
  5
0
  8
Slice
 10
-13.7000390181486
 20
53.2911662705816
 30
0
 40
0.499999999999893
 50
-90
 51
0
  0
ARC
  5
0
  8
Slice
 10
-8.50003901814916
 20
52.1911662705817
 30
0
 40
0.500000000000171
 50
0
 51
90
  0
ARC
  5
0
  8
Slice
 10
-37.1000390181489
 20
65.5911662705818
 30
0
 40
0.499999999999901
 50
-90
 51
0
  0
ARC
  5
0
  8
Slice
 10
-8.50003901814916
 20
36.8911662705818
 30
0
 40
0.499999999999929
 50
-90
 51
0
  0
ARC
  5
0
  8
Slice
 10
-16.3000390181492
 20
52.1911662705817
 30
0
 40
0.500000000000197
 50
0
 51
90
  0
ARC
  5
0
  8
Slice
 10
-20.400039018149
 20
39.8911662705817
 30
0
 40
0.500000000000206
 50
90
 51
180
  0
ARC
  5
0
  8
Slice
 10
-12.6000390181489
 20
28.6911662705818
 30
0
 40
0.500000000000199
 50
180
 51
270
  0
ARC
  5
0
  8
Slice
 10
-38.600039018149
 20
73.7911662705818
 30
0
 40
0.499999999999702
 50
180
 51
270
  0
ARC
  5
0
  8
Slice
 10
-18.9000390181489
 20
48.0911662705817
 30
0
 40
0.499999999999698
 50
0
 51
90
  0
ARC
  5
0
  8
Slice
 10
-12.6000390181489
 20
64.4911662705817
 30
0
 40
0.499999999999901
 50
90
 51
180
  0
ARC
  5
0
  8
Slice
 10
-11.1000390181489
 20
20.4911662705816
 30
0
 40
0.499999999999901
 50
-90
 51
0
  0
ARC
  5
0
  8
Slice
 10
-18.9000390181489
 20
52.1911662705817
 30
0
 40
0.499999999999698
 50
0
 51
90
  0
ARC
  5
0
  8
Slice
 10
-23.0000390181491
 20
60.3911662705819
 30
0
 40
0.5
 50
90
 51
180
  0
ARC
  5
0
  8
Slice
 10
-34.5000390181488
 20
45.0911662705816
 30
0
 40
0.499999999999908
 50
-90
 51
0
  0
ARC
  5
0
  8
Slice
 10
-24.1000390181488
 20
57.3911662705818
 30
0
 40
0.499999999999901
 50
-90
 51
0
  0
ARC
  5
0
  8
Slice
 10
-10.0000390181488
 20
24.5911662705816
 30
0
 40
0.500000000000099
 50
180
 51
270
  0
ARC
  5
0
  8
Slice
 10
-15.2000390181486
 20
57.3911662705818
 30
0
 40
0.500000000000201
 50
180
 51
270
  0
ARC
  5
0
  8
Slice
 10
-24.1000390181488
 20
73.7911662705818
 30
0
 40
0.499999999999901
 50
-90
 51
0
  0
ARC
  5
0
  8
Slice
 10
-18.9000390181489
 20
64.4911662705817
 30
0
 40
0.499999999999698
 50
0
 51
90
  0
ARC
  5
0
  8
Slice
 10
-12.6000390181489
 20
40.9911662705818
 30
0
 40
0.500000000000199
 50
180
 51
270
  0
ARC
  5
0
  8
Slice
 10
-12.6000390181489
 20
68.5911662705819
 30
0
 40
0.499999999999943
 50
90
 51
180
  0
ARC
  5
0
  8
Slice
 10
-17.8000390181492
 20
49.1911662705818
 30
0
 40
0.499999999999712
 50
180
 51
270
  0
ARC
  5
0
  8
Slice
 10
-8.50003901814916
 20
28.6911662705818
 30
0
 40
0.500000000000195
 50
-90
 51
0
  0
ARC
  5
0
  8
Slice
 10
-11.1000390181489
 20
69.6911662705816
 30
0
 40
0.499999999999957
 50
-90
 51
0
  0
ARC
  5
0
  8
Slice
 10
-10.0000390181488
 20
53.2911662705816
 30
0
 40
0.500000000000099
 50
180
 51
270
  0
ARC
  5
0
  8
Slice
 10
-18.9000390181489
 20
43.9911662705817
 30
0
 40
0.499999999999698
 50
0
 51
90
  0
ARC
  5
0
  8
Slice
 10
-11.1000390181489
 20
45.0911662705816
 30
0
 40
0.499999999999908
 50
-90
 51
0
  0
ARC
  5
0
  8
Slice
 10
-11.1000390181489
 20
48.0911662705817
 30
0
 40
0.500000000000201
 50
0
 51
90
  0
ARC
  5
0
  8
Slice
 10
-11.1000390181489
 20
72.6911662705817
 30
0
 40
0.500000000000201
 50
0
 51
90
  0
ARC
  5
0
  8
Slice
 10
-31.9000390181489
 20
45.0911662705816
 30
0
 40
0.499999999999908
 50
-90
 51
0
  0
ARC
  5
0
  8
Slice
 10
-25.6000390181488
 20
53.2911662705816
 30
0
 40
0.500000000000203
 50
180
 51
270
  0
ARC
  5
0
  8
Slice
 10
-24.1000390181488
 20
69.6911662705816
 30
0
 40
0.499999999999957
 50
-90
 51
0
  0
ARC
  5
0
  8
Slice
 10
-38.600039018149
 20
68.5911662705819
 30
0
 40
0.499999999999943
 50
90
 51
180
  0
ARC
  5
0
  8
Slice
 10
-8.50003901814916
 20
40.9911662705818
 30
0
 40
0.500000000000199
 50
-90
 51
0
  0
ARC
  5
0
  8
Slice
 10
-38.600039018149
 20
57.3911662705818
 30
0
 40
0.499999999999702
 50
180
 51
270
  0
ARC
  5
0
  8
Slice
 10
-18.9000390181489
 20
57.3911662705818
 30
0
 40
0.499999999999901
 50
-90
 51
0
  0
ARC
  5
0
  8
Slice
 10
-38.600039018149
 20
69.6911662705816
 30
0
 40
0.499999999999702
 50
180
 51
270
  0
ARC
  5
0
  8
Slice
 10
-20.400039018149
 20
52.1911662705817
 30
0
 40
0.500000000000206
 50
90
 51
180
  0
ARC
  5
0
  8
Slice
 10
-16.3000390181492
 20
43.9911662705817
 30
0
 40
0.500000000000197
 50
0
 51
90
  0
ARC
  5
0
  8
Slice
 10
-11.1000390181489
 20
39.8911662705817
 30
0
 40
0.500000000000201
 50
0
 51
90
  0
ARC
  5
0
  8
Slice
 10
-13.7000390181486
 20
40.9911662705818
 30
0
 40
0.500000000000199
 50
-90
 51
0
  0
ARC
  5
0
  8
Slice
 10
-36.0000390181488
 20
69.6911662705816
 30
0
 40
0.500000000000206
 50
180
 51
270
  0
ARC
  5
0
  8
Slice
 10
-31.9000390181489
 20
73.7911662705818
 30
0
 40
0.499999999999901
 50
-90
 51
0
  0
ARC
  5
0
  8
Slice
 10
-8.50003901814916
 20
61.4911662705816
 30
0
 40
0.499999999999922
 50
-90
 51
0
  0
ARC
  5
0
  8
Slice
 10
-16.3000390181492
 20
76.7911662705819
 30
0
 40
0.500000000000197
 50
0
 51
90
  0
ARC
  5
0
  8
Slice
 10
-21.5000390181491
 20
49.1911662705818
 30
0
 40
0.499999999999908
 50
-90
 51
0
  0
ARC
  5
0
  8
Slice
 10
-31.9000390181489
 20
65.5911662705818
 30
0
 40
0.499999999999901
 50
-90
 51
0
  0
ARC
  5
0
  8
Slice
 10
-29.3000390181488
 20
64.4911662705817
 30
0
 40
0.499999999999698
 50
0
 51
90
  0
ARC
  5
0
  8
Slice
 10
-16.3000390181492
 20
40.9911662705818
 30
0
 40
0.500000000000199
 50
-90
 51
0
  0
ARC
  5
0
  8
Slice
 10
-10.0000390181488
 20
76.7911662705819
 30
0
 40
0.499999999999901
 50
90
 51
180
  0
ARC
  5
0
  8
Slice
 10
-21.5000390181491
 20
43.9911662705817
 30
0
 40
0.500000000000199
 50
0
 51
90
  0
ARC
  5
0
  8
Slice
 10
-34.5000390181488
 20
65.5911662705818
 30
0
 40
0.499999999999901
 50
-90
 51
0
  0
ARC
  5
0
  8
Slice
 10
-15.2000390181486
 20
61.4911662705816
 30
0
 40
0.500000000000201
 50
180
 51
270
  0
ARC
  5
0
  8
Slice
 10
-13.7000390181486
 20
27.5911662705817
 30
0
 40
0.4999999999997
 50
0
 51
90
  0
ARC
  5
0
  8
Slice
 10
-37.1000390181489
 20
60.3911662705819
 30
0
 40
0.500000000000199
 50
0
 51
90
  0
ARC
  5
0
  8
Slice
 10
-26.7000390181489
 20
69.6911662705816
 30
0
 40
0.499999999999957
 50
-90
 51
0
  0
ARC
  5
0
  8
Slice
 10
-13.7000390181486
 20
52.1911662705817
 30
0
 40
0.4999999999997
 50
0
 51
90
  0
ARC
  5
0
  8
Slice
 10
-34.5000390181488
 20
57.3911662705818
 30
0
 40
0.499999999999901
 50
-90
 51
0
  0
ARC
  5
0
  8
Slice
 10
-13.7000390181486
 20
48.0911662705817
 30
0
 40
0.4999999999997
 50
0
 51
90
  0
ARC
  5
0
  8
Slice
 10
-25.6000390181488
 20
57.3911662705818
 30
0
 40
0.500000000000203
 50
180
 51
270
  0
ARC
  5
0
  8
Slice
 10
-12.6000390181489
 20
24.5911662705816
 30
0
 40
0.500000000000199
 50
180
 51
270
  0
ARC
  5
0
  8
Slice
 10
-16.3000390181492
 20
31.6911662705817
 30
0
 40
0.500000000000197
 50
0
 51
90
  0
ARC
  5
0
  8
Slice
 10
-25.6000390181488
 20
45.0911662705816
 30
0
 40
0.500000000000203
 50
180
 51
270
  0
ARC
  5
0
  8
Slice
 10
-24.1000390181488
 20
40.9911662705818
 30
0
 40
0.500000000000199
 50
-90
 51
0
  0
ARC
  5
0
  8
Slice
 10
-28.200039018149
 20
53.2911662705816
 30
0
 40
0.499999999999702
 50
180
 51
270
  0
ARC
  5
0
  8
Slice
 10
-10.0000390181488
 20
31.6911662705817
 30
0
 40
0.499999999999872
 50
90
 51
180
  0
ARC
  5
0
  8
Slice
 10
-29.3000390181488
 20
76.7911662705819
 30
0
 40
0.499999999999698
 50
0
 51
90
  0
ARC
  5
0
  8
Slice
 10
-38.600039018149
 20
61.4911662705816
 30
0
 40
0.499999999999702
 50
180
 51
270
  0
ARC
  5
0
  8
Slice
 10
-36.0000390181488
 20
68.5911662705819
 30
0
 40
0.499999999999943
 50
90
 51
180
  0
ARC
  5
0
  8
Slice
 10
-10.0000390181488
 20
60.3911662705819
 30
0
 40
0.5
 50
90
 51
180
  0
ARC
  5
0
  8
Slice
 10
-15.2000390181486
 20
28.6911662705818
 30
0
 40
0.500000000000201
 50
180
 51
270
  0
ARC
  5
0
  8
Slice
 10
-26.7000390181489
 20
48.0911662705817
 30
0
 40
0.500000000000188
 50
0
 51
90
  0
ARC
  5
0
  8
Slice
 10
-11.1000390181489
 20
64.4911662705817
 30
0
 40
0.500000000000201
 50
0
 51
90
  0
ARC
  5
0
  8
Slice
 10
-26.7000390181489
 20
61.4911662705816
 30
0
 40
0.499999999999922
 50
-90
 51
0
  0
ARC
  5
0
  8
Slice
 10
-33.400039018149
 20
68.5911662705819
 30
0
 40
0.499999999999943
 50
90
 51
180
  0
ARC
  5
0
  8
Slice
 10
-10.0000390181488
 20
64.4911662705817
 30
0
 40
0.499999999999901
 50
90
 51
180
  0
ARC
  5
0
  8
Slice
 10
-20.400039018149
 20
32.7911662705816
 30
0
 40
0.500000000000199
 50
180
 51
270
  0
ARC
  5
0
  8
Slice
 10
-34.5000390181488
 20
69.6911662705816
 30
0
 40
0.499999999999957
 50
-90
 51
0
  0
ARC
  5
0
  8
Slice
 10
-25.6000390181488
 20
73.7911662705818
 30
0
 40
0.500000000000203
 50
180
 51
270
  0
ARC
  5
0
  8
Slice
 10
-18.9000390181489
 20
73.7911662705818
 30
0
 40
0.499999999999901
 50
-90
 51
0
  0
ARC
  5
0
  8
Slice
 10
-28.200039018149
 20
61.4911662705816
 30
0
 40
0.499999999999702
 50
180
 51
270
  0
ARC
  5
0
  8
Slice
 10
-13.7000390181486
 20
56.2911662705817
 30
0
 40
0.4999999999997
 50
0
 51
90
  0
ARC
  5
0
  8
Slice
 10
-24.1000390181488
 20
68.5911662705819
 30
0
 40
0.499999999999698
 50
0
 51
90
  0
ARC
  5
0
  8
Slice
 10
-13.7000390181486
 20
39.8911662705817
 30
0
 40
0.4999999999997
 50
0
 51
90
  0
ARC
  5
0
  8
Slice
 10
-28.200039018149
 20
65.5911662705818
 30
0
 40
0.499999999999702
 50
180
 51
270
  0
ARC
  5
0
  8
Slice
 10
-23.0000390181491
 20
65.5911662705818
 30
0
 40
0.499999999999698
 50
180
 51
270
  0
ARC
  5
0
  8
Slice
 10
-37.1000390181489
 20
73.7911662705818
 30
0
 40
0.499999999999901
 50
-90
 51
0
  0
ARC
  5
0
  8
Slice
 10
-33.400039018149
 20
40.9911662705818
 30
0
 40
0.499999999999694
 50
180
 51
270
  0
ARC
  5
0
  8
Slice
 10
-24.1000390181488
 20
60.3911662705819
 30
0
 40
0.499999999999698
 50
0
 51
90
  0
ARC
  5
0
  8
Slice
 10
-20.400039018149
 20
49.1911662705818
 30
0
 40
0.500000000000199
 50
180
 51
270
  0
ARC
  5
0
  8
Slice
 10
-13.7000390181486
 20
31.6911662705817
 30
0
 40
0.4999999999997
 50
0
 51
90
  0
ARC
  5
0
  8
Slice
 10
-13.7000390181486
 20
49.1911662705818
 30
0
 40
0.499999999999908
 50
-90
 51
0
  0
ARC
  5
0
  8
Slice
 10
-10.0000390181488
 20
57.3911662705818
 30
0
 40
0.500000000000099
 50
180
 51
270
  0
ARC
  5
0
  8
Slice
 10
-34.5000390181488
 20
61.4911662705816
 30
0
 40
0.499999999999922
 50
-90
 51
0
  0
ARC
  5
0
  8
Slice
 10
-25.6000390181488
 20
40.9911662705818
 30
0
 40
0.500000000000203
 50
180
 51
270
  0
ARC
  5
0
  8
Slice
 10
-23.0000390181491
 20
45.0911662705816
 30
0
 40
0.499999999999698
 50
180
 51
270
  0
ARC
  5
0
  8
Slice
 10
-13.7000390181486
 20
65.5911662705818
 30
0
 40
0.499999999999901
 50
-90
 51
0
  0
ARC
  5
0
  8
Slice
 10
-17.8000390181492
 20
35.7911662705817
 30
0
 40
0.499999999999872
 50
90
 51
180
  0
ARC
  5
0
  8
Slice
 10
-23.0000390181491
 20
64.4911662705817
 30
0
 40
0.499999999999901
 50
90
 51
180
  0
ARC
  5
0
  8
Slice
 10
-12.6000390181489
 20
52.1911662705817
 30
0
 40
0.500000000000206
 50
90
 51
180
  0
ARC
  5
0
  8
Slice
 10
-29.3000390181488
 20
57.3911662705818
 30
0
 40
0.499999999999901
 50
-90
 51
0
  0
ARC
  5
0
  8
Slice
 10
-38.600039018149
 20
76.7911662705819
 30
0
 40
0.499999999999901
 50
90
 51
180
  0
ARC
  5
0
  8
Slice
 10
-26.7000390181489
 20
49.1911662705818
 30
0
 40
0.499999999999908
 50
-90
 51
0
  0
ARC
  5
0
  8
Slice
 10
-23.0000390181491
 20
49.1911662705818
 30
0
 40
0.499999999999698
 50
180
 51
270
  0
ARC
  5
0
  8
Slice
 10
-11.1000390181489
 20
73.7911662705818
 30
0
 40
0.499999999999901
 50
-90
 51
0
  0
ARC
  5
0
  8
Slice
 10
-25.6000390181488
 20
43.9911662705817
 30
0
 40
0.499999999999893
 50
90
 51
180
  0
ARC
  5
0
  8
Slice
 10
-18.9000390181489
 20
56.2911662705817
 30
0
 40
0.499999999999698
 50
0
 51
90
  0
ARC
  5
0
  8
Slice
 10
-18.9000390181489
 20
72.6911662705817
 30
0
 40
0.499999999999698
 50
0
 51
90
  0
ARC
  5
0
  8
Slice
 10
-11.1000390181489
 20
49.1911662705818
 30
0
 40
0.499999999999908
 50
-90
 51
0
  0
ARC
  5
0
  8
Slice
 10
-26.7000390181489
 20
60.3911662705819
 30
0
 40
0.500000000000188
 50
0
 51
90
  0
ARC
  5
0
  8
Slice
 10
-11.1000390181489
 20
56.2911662705817
 30
0
 40
0.500000000000201
 50
0
 51
90
  0
ARC
  5
0
  8
Slice
 10
-11.1000390181489
 20
36.8911662705818
 30
0
 40
0.499999999999929
 50
-90
 51
0
  0
ARC
  5
0
  8
Slice
 10
-12.6000390181489
 20
36.8911662705818
 30
0
 40
0.500000000000199
 50
180
 51
270
  0
ARC
  5
0
  8
Slice
 10
-28.200039018149
 20
68.5911662705819
 30
0
 40
0.499999999999943
 50
90
 51
180
  0
ARC
  5
0
  8
Slice
 10
-37.1000390181489
 20
53.2911662705816
 30
0
 40
0.499999999999893
 50
-90
 51
0
  0
ARC
  5
0
  8
Slice
 10
-21.5000390181491
 20
61.4911662705816
 30
0
 40
0.499999999999922
 50
-90
 51
0
  0
ARC
  5
0
  8
Slice
 10
-30.8000390181488
 20
56.2911662705817
 30
0
 40
0.499999999999929
 50
90
 51
180
  0
ARC
  5
0
  8
Slice
 10
-24.1000390181488
 20
36.8911662705818
 30
0
 40
0.499999999999929
 50
-90
 51
0
  0
ARC
  5
0
  8
Slice
 10
-12.6000390181489
 20
20.4911662705816
 30
0
 40
0.500000000000199
 50
180
 51
270
  0
ARC
  5
0
  8
Slice
 10
-20.400039018149
 20
48.0911662705817
 30
0
 40
0.499999999999893
 50
90
 51
180
  0
ARC
  5
0
  8
Slice
 10
-11.1000390181489
 20
76.7911662705819
 30
0
 40
0.500000000000201
 50
0
 51
90
  0
ARC
  5
0
  8
Slice
 10
-15.2000390181486
 20
68.5911662705819
 30
0
 40
0.499999999999943
 50
90
 51
180
  0
ARC
  5
0
  8
Slice
 10
-10.0000390181488
 20
56.2911662705817
 30
0
 40
0.499999999999929
 50
90
 51
180
  0
ARC
  5
0
  8
Slice
 10
-8.50003901814916
 20
48.0911662705817
 30
0
 40
0.500000000000171
 50
0
 51
90
  0
ARC
  5
0
  8
Slice
 10
-30.8000390181488
 20
68.5911662705819
 30
0
 40
0.499999999999943
 50
90
 51
180
  0
ARC
  5
0
  8
Slice
 10
-18.9000390181489
 20
53.2911662705816
 30
0
 40
0.499999999999893
 50
-90
 51
0
  0
ARC
  5
0
  8
Slice
 10
-10.0000390181488
 20
20.4911662705816
 30
0
 40
0.500000000000099
 50
180
 51
270
  0
ARC
  5
0
  8
Slice
 10
-12.6000390181489
 20
39.8911662705817
 30
0
 40
0.500000000000206
 50
90
 51
180
  0
ARC
  5
0
  8
Slice
 10
-31.9000390181489
 20
53.2911662705816
 30
0
 40
0.499999999999893
 50
-90
 51
0
  0
ARC
  5
0
  8
Slice
 10
-11.1000390181489
 20
60.3911662705819
 30
0
 40
0.500000000000201
 50
0
 51
90
  0
ARC
  5
0
  8
Slice
 10
-36.0000390181488
 20
61.4911662705816
 30
0
 40
0.500000000000206
 50
180
 51
270
  0
ARC
  5
0
  8
Slice
 10
-24.1000390181488
 20
48.0911662705817
 30
0
 40
0.499999999999698
 50
0
 51
90
  0
ARC
  5
0
  8
Slice
 10
-16.3000390181492
 20
65.5911662705818
 30
0
 40
0.499999999999901
 50
-90
 51
0
  0
ARC
  5
0
  8
Slice
 10
-31.9000390181489
 20
40.9911662705818
 30
0
 40
0.500000000000199
 50
-90
 51
0
  0
ARC
  5
0
  8
Slice
 10
-12.6000390181489
 20
56.2911662705817
 30
0
 40
0.499999999999929
 50
90
 51
180
  0
ARC
  5
0
  8
Slice
 10
-12.6000390181489
 20
53.2911662705816
 30
0
 40
0.500000000000199
 50
180
 51
270
  0
ARC
  5
0
  8
Slice
 10
-20.400039018149
 20
56.2911662705817
 30
0
 40
0.499999999999929
 50
90
 51
180
  0
ARC
  5
0
  8
Slice
 10
-23.0000390181491
 20
57.3911662705818
 30
0
 40
0.499999999999698
 50
180
 51
270
  0
ARC
  5
0
  8
Slice
 10
-29.3000390181488
 20
40.9911662705818
 30
0
 40
0.500000000000199
 50
-90
 51
0
  0
ARC
  5
0
  8
Slice
 10
-21.5000390181491
 20
72.6911662705817
 30
0
 40
0.500000000000199
 50
0
 51
90
  0
ARC
  5
0
  8
Slice
 10
-12.6000390181489
 20
35.7911662705817
 30
0
 40
0.499999999999872
 50
90
 51
180
  0
ARC
  5
0
  8
Slice
 10
-24.1000390181488
 20
64.4911662705817
 30
0
 40
0.499999999999698
 50
0
 51
90
  0
ARC
  5
0
  8
Slice
 10
-38.600039018149
 20
65.5911662705818
 30
0
 40
0.499999999999702
 50
180
 51
270
  0
ARC
  5
0
  8
Slice
 10
-33.400039018149
 20
53.2911662705816
 30
0
 40
0.499999999999694
 50
180
 51
270
  0
ARC
  5
0
  8
Slice
 10
-13.7000390181486
 20
68.5911662705819
 30
0
 40
0.4999999999997
 50
0
 51
90
  0
ARC
  5
0
  8
Slice
 10
-30.8000390181488
 20
52.1911662705817
 30
0
 40
0.500000000000206
 50
90
 51
180
  0
ARC
  5
0
  8
Slice
 10
-17.8000390181492
 20
32.7911662705816
 30
0
 40
0.499999999999712
 50
180
 51
270
  0
ARC
  5
0
  8
Slice
 10
-20.400039018149
 20
68.5911662705819
 30
0
 40
0.499999999999943
 50
90
 51
180
  0
ARC
  5
0
  8
Slice
 10
-8.50003901814916
 20
65.5911662705818
 30
0
 40
0.499999999999901
 50
-90
 51
0
  0
ARC
  5
0
  8
Slice
 10
-15.2000390181486
 20
72.6911662705817
 30
0
 40
0.499999999999858
 50
90
 51
180
  0
ARC
  5
0
  8
Slice
 10
-13.7000390181486
 20
76.7911662705819
 30
0
 40
0.4999999999997
 50
0
 51
90
  0
ARC
  5
0
  8
Slice
 10
-26.7000390181489
 20
57.3911662705818
 30
0
 40
0.499999999999901
 50
-90
 51
0
  0
ARC
  5
0
  8
Slice
 10
-31.9000390181489
 20
76.7911662705819
 30
0
 40
0.500000000000195
 50
0
 51
90
  0
ARC
  5
0
  8
Slice
 10
-8.50003901814916
 20
23.4911662705817
 30
0
 40
0.500000000000171
 50
0
 51
90
  0
ARC
  5
0
  8
Slice
 10
-29.3000390181488
 20
68.5911662705819
 30
0
 40
0.499999999999698
 50
0
 51
90
  0
ARC
  5
0
  8
Slice
 10
-24.1000390181488
 20
45.0911662705816
 30
0
 40
0.499999999999908
 50
-90
 51
0
  0
ARC
  5
0
  8
Slice
 10
-28.200039018149
 20
43.9911662705817
 30
0
 40
0.499999999999893
 50
90
 51
180
  0
ARC
  5
0
  8
Slice
 10
-16.3000390181492
 20
68.5911662705819
 30
0
 40
0.500000000000197
 50
0
 51
90
  0
ARC
  5
0
  8
Slice
 10
-11.1000390181489
 20
65.5911662705818
 30
0
 40
0.499999999999901
 50
-90
 51
0
  0
ARC
  5
0
  8
Slice
 10
-17.8000390181492
 20
53.2911662705816
 30
0
 40
0.499999999999712
 50
180
 51
270
  0
ARC
  5
0
  8
Slice
 10
-31.9000390181489
 20
61.4911662705816
 30
0
 40
0.499999999999922
 50
-90
 51
0
  0
ARC
  5
0
  8
Slice
 10
-24.1000390181488
 20
53.2911662705816
 30
0
 40
0.499999999999893
 50
-90
 51
0
  0
ARC
  5
0
  8
Slice
 10
-24.1000390181488
 20
65.5911662705818
 30
0
 40
0.499999999999901
 50
-90
 51
0
  0
ARC
  5
0
  8
Slice
 10
-29.3000390181488
 20
53.2911662705816
 30
0
 40
0.499999999999893
 50
-90
 51
0
  0
ARC
  5
0
  8
Slice
 10
-20.400039018149
 20
60.3911662705819
 30
0
 40
0.5
 50
90
 51
180
  0
ARC
  5
0
  8
Slice
 10
-34.5000390181488
 20
68.5911662705819
 30
0
 40
0.499999999999694
 50
0
 51
90
  0
ARC
  5
0
  8
Slice
 10
-11.1000390181489
 20
57.3911662705818
 30
0
 40
0.499999999999901
 50
-90
 51
0
  0
ARC
  5
0
  8
Slice
 10
-12.6000390181489
 20
60.3911662705819
 30
0
 40
0.5
 50
90
 51
180
  0
ARC
  5
0
  8
Slice
 10
-8.50003901814916
 20
57.3911662705818
 30
0
 40
0.499999999999901
 50
-90
 51
0
  0
ARC
  5
0
  8
Slice
 10
-23.0000390181491
 20
40.9911662705818
 30
0
 40
0.499999999999698
 50
180
 51
270
  0
ARC
  5
0
  8
Slice
 10
-15.2000390181486
 20
45.0911662705816
 30
0
 40
0.500000000000201
 50
180
 51
270
  0
ARC
  5
0
  8
Slice
 10
-33.400039018149
 20
69.6911662705816
 30
0
 40
0.499999999999694
 50
180
 51
270
  0
ARC
  5
0
  8
Slice
 10
-23.0000390181491
 20
56.2911662705817
 30
0
 40
0.499999999999929
 50
90
 51
180
  0
ARC
  5
0
  8
Slice
 10
-33.400039018149
 20
52.1911662705817
 30
0
 40
0.500000000000206
 50
90
 51
180
  0
ARC
  5
0
  8
Slice
 10
-25.6000390181488
 20
56.2911662705817
 30
0
 40
0.499999999999929
 50
90
 51
180
  0
ARC
  5
0
  8
Slice
 10
-30.8000390181488
 20
48.0911662705817
 30
0
 40
0.499999999999893
 50
90
 51
180
  0
ARC
  5
0
  8
Slice
 10
-29.3000390181488
 20
45.0911662705816
 30
0
 40
0.499999999999908
 50
-90
 51
0
  0
ARC
  5
0
  8
Slice
 10
-31.9000390181489
 20
43.9911662705817
 30
0
 40
0.500000000000195
 50
0
 51
90
  0
ARC
  5
0
  8
Slice
 10
-29.3000390181488
 20
65.5911662705818
 30
0
 40
0.499999999999901
 50
-90
 51
0
  0
ARC
  5
0
  8
Slice
 10
-29.3000390181488
 20
52.1911662705817
 30
0
 40
0.499999999999698
 50
0
 51
90
  0
ARC
  5
0
  8
Slice
 10
-15.2000390181486
 20
24.5911662705816
 30
0
 40
0.500000000000201
 50
180
 51
270
  0
ARC
  5
0
  8
Slice
 10
-21.5000390181491
 20
60.3911662705819
 30
0
 40
0.500000000000199
 50
0
 51
90
  0
ARC
  5
0
  8
Slice
 10
-17.8000390181492
 20
45.0911662705816
 30
0
 40
0.499999999999712
 50
180
 51
270
  0
ARC
  5
0
  8
Slice
 10
-23.0000390181491
 20
69.6911662705816
 30
0
 40
0.499999999999698
 50
180
 51
270
  0
ARC
  5
0
  8
Slice
 10
-12.6000390181489
 20
65.5911662705818
 30
0
 40
0.500000000000199
 50
180
 51
270
  0
ARC
  5
0
  8
Slice
 10
-16.3000390181492
 20
61.4911662705816
 30
0
 40
0.499999999999922
 50
-90
 51
0
  0
ARC
  5
0
  8
Slice
 10
-37.1000390181489
 20
72.6911662705817
 30
0
 40
0.500000000000199
 50
0
 51
90
  0
ARC
  5
0
  8
Slice
 10
-8.50003901814916
 20
32.7911662705816
 30
0
 40
0.499999999999929
 50
-90
 51
0
  0
ARC
  5
0
  8
Slice
 10
-16.3000390181492
 20
36.8911662705818
 30
0
 40
0.499999999999929
 50
-90
 51
0
  0
ARC
  5
0
  8
Slice
 10
-10.0000390181488
 20
43.9911662705817
 30
0
 40
0.499999999999893
 50
90
 51
180
  0
ARC
  5
0
  8
Slice
 10
-16.3000390181492
 20
53.2911662705816
 30
0
 40
0.499999999999893
 50
-90
 51
0
  0
ARC
  5
0
  8
Slice
 10
-8.50003901814916
 20
68.5911662705819
 30
0
 40
0.500000000000171
 50
0
 51
90
  0
ARC
  5
0
  8
Slice
 10
-26.7000390181489
 20
76.7911662705819
 30
0
 40
0.500000000000188
 50
0
 51
90
  0
ARC
  5
0
  8
Slice
 10
-29.3000390181488
 20
73.7911662705818
 30
0
 40
0.499999999999901
 50
-90
 51
0
  0
ARC
  5
0
  8
Slice
 10
-11.1000390181489
 20
32.7911662705816
 30
0
 40
0.499999999999929
 50
-90
 51
0
  0
ARC
  5
0
  8
Slice
 10
-31.9000390181489
 20
48.0911662705817
 30
0
 40
0.500000000000195
 50
0
 51
90
  0
ARC
  5
0
  8
Slice
 10
-13.7000390181486
 20
60.3911662705819
 30
0
 40
0.4999999999997
 50
0
 51
90
  0
ARC
  5
0
  8
Slice
 10
-17.8000390181492
 20
52.1911662705817
 30
0
 40
0.500000000000206
 50
90
 51
180
  0
ARC
  5
0
  8
Slice
 10
-29.3000390181488
 20
48.0911662705817
 30
0
 40
0.499999999999698
 50
0
 51
90
  0
ARC
  5
0
  8
Slice
 10
-33.400039018149
 20
49.1911662705818
 30
0
 40
0.499999999999694
 50
180
 51
270
  0
ARC
  5
0
  8
Slice
 10
-15.2000390181486
 20
56.2911662705817
 30
0
 40
0.499999999999929
 50
90
 51
180
  0
ARC
  5
0
  8
Slice
 10
-33.400039018149
 20
61.4911662705816
 30
0
 40
0.499999999999694
 50
180
 51
270
  0
ARC
  5
0
  8
Slice
 10
-30.8000390181488
 20
43.9911662705817
 30
0
 40
0.499999999999893
 50
90
 51
180
  0
ARC
  5
0
  8
Slice
 10
-24.1000390181488
 20
61.4911662705816
 30
0
 40
0.499999999999922
 50
-90
 51
0
  0
ARC
  5
0
  8
Slice
 10
-34.5000390181488
 20
72.6911662705817
 30
0
 40
0.499999999999694
 50
0
 51
90
  0
ARC
  5
0
  8
Slice
 10
-29.3000390181488
 20
49.1911662705818
 30
0
 40
0.499999999999908
 50
-90
 51
0
  0
ARC
  5
0
  8
Slice
 10
-13.7000390181486
 20
69.6911662705816
 30
0
 40
0.499999999999957
 50
-90
 51
0
  0
ARC
  5
0
  8
Slice
 10
-15.2000390181486
 20
73.7911662705818
 30
0
 40
0.500000000000201
 50
180
 51
270
  0
ARC
  5
0
  8
Slice
 10
-16.3000390181492
 20
73.7911662705818
 30
0
 40
0.499999999999901
 50
-90
 51
0
  0
ARC
  5
0
  8
Slice
 10
-12.6000390181489
 20
72.6911662705817
 30
0
 40
0.499999999999858
 50
90
 51
180
  0
ARC
  5
0
  8
Slice
 10
-13.7000390181486
 20
72.6911662705817
 30
0
 40
0.4999999999997
 50
0
 51
90
  0
ARC
  5
0
  8
Slice
 10
-12.6000390181489
 20
73.7911662705818
 30
0
 40
0.500000000000199
 50
180
 51
270
  0
ARC
  5
0
  8
Slice
 10
-24.1000390181488
 20
76.7911662705819
 30
0
 40
0.499999999999698
 50
0
 51
90
  0
ARC
  5
0
  8
Slice
 10
-20.400039018149
 20
72.6911662705817
 30
0
 40
0.499999999999858
 50
90
 51
180
  0
ARC
  5
0
  8
Slice
 10
-16.3000390181492
 20
72.6911662705817
 30
0
 40
0.500000000000197
 50
0
 51
90
  0
ARC
  5
0
  8
Slice
 10
-17.8000390181492
 20
72.6911662705817
 30
0
 40
0.499999999999858
 50
90
 51
180
  0
ENDSEC
  0
EOF
